<svg width="50" height="38" viewBox="0 0 50 38" fill="none" xmlns="http://www.w3.org/2000/svg">
<path d="M5.46875 0.25H44.5312C47.55 0.25 50 2.7 50 5.71875V32.2812C50 33.7317 49.4238 35.1227 48.3982 36.1482C47.3727 37.1738 45.9817 37.75 44.5312 37.75H5.46875C4.01835 37.75 2.62735 37.1738 1.60176 36.1482C0.57617 35.1227 0 33.7317 0 32.2812L0 5.71875C0 2.7 2.45 0.25 5.46875 0.25ZM4.6875 32.2844C4.6875 32.7156 5.0375 33.0656 5.46875 33.0656H44.5312C44.7384 33.0656 44.9372 32.9833 45.0837 32.8368C45.2302 32.6903 45.3125 32.4916 45.3125 32.2844V12.1531L26.1875 23.3656C25.8275 23.5772 25.4175 23.6887 25 23.6887C24.5825 23.6887 24.1725 23.5772 23.8125 23.3656L4.6875 12.1531V32.2844ZM45.3125 6.71875V5.71875C45.3125 5.51155 45.2302 5.31284 45.0837 5.16632C44.9372 5.01981 44.7384 4.9375 44.5312 4.9375H5.46875C5.26155 4.9375 5.06284 5.01981 4.91632 5.16632C4.76981 5.31284 4.6875 5.51155 4.6875 5.71875V6.71875L25 18.625L45.3125 6.71875Z" fill="#9747FF"/>
</svg>