<svg width="84" height="78" viewBox="0 0 84 78" fill="none" xmlns="http://www.w3.org/2000/svg">
<path d="M73.5 46.6875H84V77.8125H42V46.6875H52.5V36.3125H73.5V46.6875ZM57.75 46.6875H68.25V41.5H57.75V46.6875ZM78.75 62.25H73.5V67.4375H68.25V62.25H57.75V67.4375H52.5V62.25H47.25V72.625H78.75V62.25ZM47.25 51.875V57.0625H78.75V51.875H47.25ZM36.75 31.125C36.75 33.6377 36.1895 35.9883 35.0684 38.1768C33.9473 40.3652 32.3477 42.2025 30.2695 43.6885C31.5 44.3099 32.6621 45.0259 33.7559 45.8364C34.8496 46.647 35.8477 47.5521 36.75 48.5518V62.25C36.75 60.1156 36.3398 58.1027 35.5195 56.2114C34.6992 54.3201 33.5781 52.672 32.1562 51.2671C30.7344 49.8621 29.0527 48.7409 27.1113 47.9033C25.1699 47.0658 23.1328 46.6605 21 46.6875C18.8125 46.6875 16.7754 47.0928 14.8887 47.9033C13.002 48.7139 11.334 49.8216 9.88477 51.2266C8.43555 52.6315 7.30078 54.2931 6.48047 56.2114C5.66016 58.1297 5.25 60.1426 5.25 62.25H0C0 60.2777 0.273438 58.3729 0.820312 56.5356C1.36719 54.6984 2.14648 52.9557 3.1582 51.3076C4.16992 49.6595 5.41406 48.2005 6.89062 46.9307C8.36719 45.6608 9.98047 44.5666 11.7305 43.6479C9.67969 42.189 8.09375 40.3652 6.97266 38.1768C5.85156 35.9883 5.27734 33.6377 5.25 31.125C5.25 28.9906 5.66016 26.9777 6.48047 25.0864C7.30078 23.1952 8.42188 21.547 9.84375 20.1421C11.2656 18.7371 12.9336 17.6159 14.8477 16.7783C16.7617 15.9408 18.8125 15.5355 21 15.5625C22.9688 15.5625 24.8418 15.9002 26.6191 16.5757C28.3965 17.2511 30.0234 18.2508 31.5 19.5747C32.375 18.7912 33.3457 18.1022 34.4121 17.5078C33.4824 16.5622 32.7715 15.4679 32.2793 14.2251C31.7871 12.9823 31.5273 11.6989 31.5 10.375C31.5 8.94303 31.7734 7.60563 32.3203 6.36279C32.8672 5.11995 33.6191 4.01221 34.5762 3.03955C35.5332 2.06689 36.6406 1.32389 37.8984 0.810547C39.1562 0.297201 40.5234 0.0270182 42 0C43.4492 0 44.8027 0.270182 46.0605 0.810547C47.3184 1.35091 48.4395 2.09391 49.4238 3.03955C50.4082 3.98519 51.1602 5.07943 51.6797 6.32227C52.1992 7.5651 52.4727 8.91602 52.5 10.375C52.5 11.6989 52.2539 12.9823 51.7617 14.2251C51.2695 15.4679 50.5449 16.5622 49.5879 17.5078C51.8574 18.7507 53.7031 20.4258 55.125 22.5332C56.5469 20.4258 58.3926 18.7507 60.6621 17.5078C59.7324 16.5622 59.0215 15.4679 58.5293 14.2251C58.0371 12.9823 57.7773 11.6989 57.75 10.375C57.75 8.94303 58.0234 7.60563 58.5703 6.36279C59.1172 5.11995 59.8691 4.01221 60.8262 3.03955C61.7832 2.06689 62.8906 1.32389 64.1484 0.810547C65.4062 0.297201 66.7734 0.0270182 68.25 0C69.6992 0 71.0527 0.270182 72.3105 0.810547C73.5684 1.35091 74.6895 2.09391 75.6738 3.03955C76.6582 3.98519 77.4102 5.07943 77.9297 6.32227C78.4492 7.5651 78.7227 8.91602 78.75 10.375C78.75 11.6989 78.5039 12.9823 78.0117 14.2251C77.5195 15.4679 76.7949 16.5622 75.8379 17.5078C77.0957 18.1833 78.2305 19.0073 79.2422 19.98C80.2539 20.9526 81.1016 22.0199 81.7852 23.1816C82.4688 24.3434 83.0156 25.6133 83.4258 26.9912C83.8359 28.3691 84.0273 29.7471 84 31.125H78.75C78.75 29.693 78.4766 28.3556 77.9297 27.1128C77.3828 25.87 76.6309 24.7622 75.6738 23.7896C74.7168 22.8169 73.6094 22.0739 72.3516 21.5605C71.0938 21.0472 69.7266 20.777 68.25 20.75C66.8008 20.75 65.4473 21.0202 64.1895 21.5605C62.9316 22.1009 61.8105 22.8439 60.8262 23.7896C59.8418 24.7352 59.0898 25.8294 58.5703 27.0723C58.0508 28.3151 57.7773 29.666 57.75 31.125H52.5C52.5 29.693 52.2266 28.3556 51.6797 27.1128C51.1328 25.87 50.3809 24.7622 49.4238 23.7896C48.4668 22.8169 47.3594 22.0739 46.1016 21.5605C44.8438 21.0472 43.4766 20.777 42 20.75C40.6602 20.75 39.3613 20.9932 38.1035 21.4795C36.8457 21.9658 35.7383 22.6818 34.7812 23.6274C35.4375 24.7622 35.9297 25.9645 36.2578 27.2344C36.5859 28.5042 36.75 29.8011 36.75 31.125ZM68.25 5.1875C67.5117 5.1875 66.8281 5.32259 66.1992 5.59277C65.5703 5.86296 65.0234 6.2277 64.5586 6.68701C64.0938 7.14632 63.7109 7.7002 63.4102 8.34863C63.1094 8.99707 62.9727 9.67253 63 10.375C63 11.1045 63.1367 11.7799 63.4102 12.4014C63.6836 13.0228 64.0527 13.5632 64.5176 14.0225C64.9824 14.4818 65.543 14.86 66.1992 15.1572C66.8555 15.4544 67.5391 15.5895 68.25 15.5625C68.9883 15.5625 69.6719 15.4274 70.3008 15.1572C70.9297 14.887 71.4766 14.5223 71.9414 14.063C72.4062 13.6037 72.7891 13.0498 73.0898 12.4014C73.3906 11.7529 73.5273 11.0775 73.5 10.375C73.5 9.64551 73.3633 8.97005 73.0898 8.34863C72.8164 7.72721 72.4473 7.18685 71.9824 6.72754C71.5176 6.26823 70.957 5.88997 70.3008 5.59277C69.6445 5.29557 68.9609 5.16048 68.25 5.1875ZM42 5.1875C41.2617 5.1875 40.5781 5.32259 39.9492 5.59277C39.3203 5.86296 38.7734 6.2277 38.3086 6.68701C37.8438 7.14632 37.4609 7.7002 37.1602 8.34863C36.8594 8.99707 36.7227 9.67253 36.75 10.375C36.75 11.1045 36.8867 11.7799 37.1602 12.4014C37.4336 13.0228 37.8027 13.5632 38.2676 14.0225C38.7324 14.4818 39.293 14.86 39.9492 15.1572C40.6055 15.4544 41.2891 15.5895 42 15.5625C42.7383 15.5625 43.4219 15.4274 44.0508 15.1572C44.6797 14.887 45.2266 14.5223 45.6914 14.063C46.1562 13.6037 46.5391 13.0498 46.8398 12.4014C47.1406 11.7529 47.2773 11.0775 47.25 10.375C47.25 9.64551 47.1133 8.97005 46.8398 8.34863C46.5664 7.72721 46.1973 7.18685 45.7324 6.72754C45.2676 6.26823 44.707 5.88997 44.0508 5.59277C43.3945 5.29557 42.7109 5.16048 42 5.1875ZM21 41.5C22.4492 41.5 23.8027 41.2298 25.0605 40.6895C26.3184 40.1491 27.4395 39.4061 28.4238 38.4604C29.4082 37.5148 30.1602 36.4206 30.6797 35.1777C31.1992 33.9349 31.4727 32.584 31.5 31.125C31.5 29.693 31.2266 28.3556 30.6797 27.1128C30.1328 25.87 29.3809 24.7622 28.4238 23.7896C27.4668 22.8169 26.3594 22.0739 25.1016 21.5605C23.8438 21.0472 22.4766 20.777 21 20.75C19.5508 20.75 18.1973 21.0202 16.9395 21.5605C15.6816 22.1009 14.5605 22.8439 13.5762 23.7896C12.5918 24.7352 11.8398 25.8294 11.3203 27.0723C10.8008 28.3151 10.5273 29.666 10.5 31.125C10.5 32.557 10.7734 33.8944 11.3203 35.1372C11.8672 36.38 12.6191 37.4878 13.5762 38.4604C14.5332 39.4331 15.6406 40.1761 16.8984 40.6895C18.1562 41.2028 19.5234 41.473 21 41.5Z" fill="#AE60D6"/>
</svg>
