<svg width="30" height="30" viewBox="0 0 30 30" fill="none" xmlns="http://www.w3.org/2000/svg">
<path d="M27.7869 0.000113606H2.21311C1.63286 -0.00579163 1.07397 0.218729 0.659063 0.624411C0.244158 1.03009 0.00713392 1.5838 0 2.16403V27.8409C0.00842406 28.4203 0.246015 28.9727 0.66078 29.3773C1.07554 29.782 1.6337 30.0058 2.21311 29.9999H27.7869C28.3672 30.0045 28.9257 29.7792 29.3404 29.3733C29.7551 28.9673 29.9922 28.4138 30 27.8335V2.15665C29.9897 1.57812 29.7514 1.02706 29.337 0.623238C28.9225 0.219418 28.3655 -0.00451463 27.7869 0.000113606Z" fill="#0076B2"/>
<path d="M4.44199 11.2449H8.89527V25.5734H4.44199V11.2449ZM6.66986 4.11377C7.18063 4.11377 7.67992 4.26526 8.10458 4.54908C8.52923 4.83289 8.86017 5.23628 9.05552 5.70822C9.25087 6.18015 9.30186 6.69942 9.20203 7.20034C9.10221 7.70125 8.85605 8.16131 8.49471 8.5223C8.13337 8.88329 7.67308 9.12901 7.17207 9.22835C6.67105 9.3277 6.15183 9.27622 5.68008 9.08042C5.20833 8.88462 4.80525 8.5533 4.52184 8.12838C4.23842 7.70346 4.08741 7.20402 4.08789 6.69326C4.08854 6.00891 4.36086 5.35281 4.845 4.86913C5.32914 4.38546 5.9855 4.11377 6.66986 4.11377Z" fill="white"/>
<path d="M11.6895 11.2447H15.9583V13.2119H16.0173C16.6124 12.0857 18.0632 10.898 20.2296 10.898C24.7395 10.8881 25.5755 13.8561 25.5755 17.7045V25.5733H21.1222V18.602C21.1222 16.9422 21.0927 14.8053 18.8083 14.8053C16.5239 14.8053 16.1354 16.6151 16.1354 18.4938V25.5733H11.6895V11.2447Z" fill="white"/>
</svg>
