<svg width="1676.0000000000002" height="1676.0000000000002" xmlns="http://www.w3.org/2000/svg" version="1.2">
 <title>feminnova - Logotipo</title>

 <g>
  <title>Layer 1</title>
  <g id="Background" stroke="null">
   <path id="Path 0" class="s0" d="m171,4.1c-5.2,0.8 -14.2,2.6 -20,4c-5.8,1.4 -14.8,4.2 -20,6.1c-5.2,2 -14.7,6.1 -21,9.3c-6.3,3.2 -15.5,8.5 -20.5,11.7c-5,3.3 -11.9,8.3 -15.5,11.3c-3.6,2.9 -9.8,8.5 -13.8,12.4c-4.1,3.9 -10.2,10.5 -13.7,14.6c-3.4,4.1 -9.3,12 -13,17.5c-3.8,5.5 -9.9,16.3 -13.6,24c-3.7,7.7 -8.3,18.7 -10.2,24.5c-1.9,5.8 -4.4,14.8 -5.5,20c-1.1,5.2 -2.6,13.8 -3.2,19c-0.8,6.9 -1,88.9 -0.8,297.6l0.3,288.1c29.4,-8.3 47,-12.7 58,-15.1c11,-2.5 28.1,-5.8 38,-7.5c9.9,-1.7 23.4,-3.7 30,-4.6c6.6,-0.8 19.4,-2.2 28.5,-3c9.1,-0.8 28,-1.9 42,-2.4c16,-0.6 35,-0.6 51,0c14,0.5 32.9,1.6 42,2.4c9.1,0.8 21.9,2.2 28.5,3c6.6,0.9 21.2,3.1 32.5,5.1c11.3,1.9 28.4,5.3 38,7.5c9.6,2.1 24.3,5.8 32.5,8c8.3,2.3 23.3,6.8 33.5,10.1c10.2,3.3 25.9,8.9 35,12.3c9.1,3.4 22.8,9 30.5,12.3c7.7,3.3 21,9.3 29.5,13.4c8.5,4.1 23.1,11.6 32.5,16.8c9.4,5.1 22.6,12.7 29.5,16.8c6.9,4.1 20.4,12.8 30,19.3c9.6,6.4 24.7,17.1 33.5,23.7c8.8,6.5 23,17.8 31.5,24.9c8.5,7.2 22.5,19.5 31,27.5c8.5,7.9 21.9,21.2 29.6,29.4c7.8,8.2 18.1,19.4 22.9,24.9c4.8,5.5 13.1,15.4 18.5,22c5.3,6.6 14.3,18.3 20.1,26c5.7,7.7 15.4,21.7 21.6,31c6.2,9.3 11.8,17.9 12.6,19c1.3,1.9 1.7,1.5 6.8,-6.5c2.9,-4.7 8.7,-13.5 12.8,-19.5c4.1,-6 11.9,-17.1 17.4,-24.5c5.5,-7.4 13.6,-18 18.1,-23.5c4.4,-5.5 13.6,-16.5 20.5,-24.5c7,-7.9 19.3,-21.4 27.6,-29.8c8.2,-8.5 21.5,-21.4 29.4,-28.6c7.9,-7.2 20.5,-18.2 28,-24.5c7.5,-6.2 20.8,-16.7 29.6,-23.3c8.8,-6.6 23.9,-17.3 33.5,-23.8c9.6,-6.4 24.2,-15.8 32.5,-20.7c8.2,-4.9 21.7,-12.6 30,-17.1c8.2,-4.4 21.7,-11.3 30,-15.3c8.2,-3.9 21.3,-9.8 29,-13.1c7.7,-3.3 21.4,-8.9 30.5,-12.3c9.1,-3.4 24.8,-9 35,-12.3c10.2,-3.3 26.2,-8.1 35.5,-10.6c9.3,-2.5 24,-6.1 32.5,-8c8.5,-1.9 21.8,-4.6 29.5,-6c7.7,-1.4 20.3,-3.4 28,-4.5c7.7,-1.1 20.5,-2.7 28.5,-3.5c8,-0.9 21,-2 29,-2.5c8,-0.6 23.3,-1.3 34,-1.6c10.7,-0.4 30.5,-0.2 44,0.4c13.5,0.7 31.9,1.8 41,2.7c9.1,0.8 26,2.8 37.5,4.5c11.5,1.6 30,4.8 41,7c11,2.2 20.3,4.2 20.7,4.5c0.5,0.2 0.8,-126.7 0.8,-282.1c0,-251.9 -0.2,-283.7 -1.6,-293.8c-0.8,-6.1 -2.8,-16.1 -4.4,-22.2c-1.5,-6.1 -4.4,-15.1 -6.3,-20c-1.9,-5 -5.9,-14 -9,-20c-3,-6.1 -8.2,-15.1 -11.4,-20c-3.3,-5 -8.3,-11.9 -11.3,-15.5c-2.9,-3.6 -8.5,-9.8 -12.4,-13.8c-3.9,-4.1 -10.5,-10.2 -14.6,-13.7c-4.1,-3.4 -12,-9.3 -17.5,-13c-5.5,-3.8 -16.3,-9.9 -24,-13.6c-7.7,-3.7 -18.3,-8.2 -23.5,-9.9c-5.2,-1.7 -13.1,-4 -17.5,-5.1c-4.4,-1 -12.7,-2.5 -18.5,-3.4c-9.2,-1.3 -88.9,-1.5 -667,-1.4c-552.7,0.1 -658,0.3 -666,1.5z" fill="#ffffff" stroke="null"/>
   <path id="Path 1" class="s1" d="m810.5,55.5c-5.5,0.5 -15,1.6 -21,2.5c-6,0.9 -16.4,2.7 -23,4c-6.6,1.3 -18.5,4.3 -26.5,6.5c-8,2.3 -21,6.6 -29,9.7c-8,3 -20.4,8.3 -27.5,11.7c-7.1,3.4 -18,9.1 -24,12.5c-6,3.5 -16.9,10.3 -24,15.2c-7.1,4.8 -18,12.7 -24,17.5c-6,4.9 -18.7,16.5 -28.1,25.9c-9.3,9.3 -21.5,22.6 -27,29.5c-5.4,6.9 -13.6,17.9 -18,24.5c-4.5,6.6 -10.7,16.5 -13.9,22c-3.1,5.5 -7.9,14.3 -10.5,19.5c-2.6,5.2 -7.1,15.1 -10,22c-2.9,6.9 -7.2,18.4 -9.6,25.5c-2.3,7.1 -5.6,18.4 -7.3,25c-1.6,6.6 -3.9,16.7 -5,22.5c-1.1,5.8 -2.8,16.8 -3.7,24.5c-1.4,10.4 -1.8,21.1 -1.9,42c0,17 0.5,32.1 1.3,38.5c0.7,5.8 2.4,17 3.8,25c1.4,8 3.9,19.9 5.5,26.5c1.7,6.6 4.4,16.3 6.1,21.5c1.6,5.2 5.5,15.8 8.5,23.5c3.1,7.7 8.5,19.9 12,27c3.6,7.1 9.9,18.6 14.1,25.5c4.1,6.9 11.1,17.6 15.6,23.9c4.5,6.3 12.7,16.9 18.2,23.5c5.6,6.7 16.6,18.4 24.5,26.1c7.9,7.8 18.9,17.7 24.4,22.1c5.5,4.4 14.5,11.2 20,15.1c5.5,3.9 15,10.1 21,13.8c6,3.6 16.6,9.4 23.5,12.9c6.9,3.5 18.1,8.8 25,11.6c6.9,2.9 18.4,7.2 25.5,9.6c7.1,2.3 18.4,5.6 25,7.3c6.6,1.6 16.7,3.9 22.5,5c5.8,1.1 16.8,2.8 24.5,3.7c10.4,1.4 21.1,1.8 42,1.9c17,0 32.1,-0.5 38.5,-1.3c5.8,-0.7 17,-2.4 25,-3.8c8,-1.4 19.9,-3.9 26.5,-5.5c6.6,-1.7 16.3,-4.4 21.5,-6.1c5.2,-1.6 15.8,-5.5 23.5,-8.5c7.7,-3.1 19.9,-8.5 27,-12c7.1,-3.6 18.6,-9.9 25.5,-14.1c6.9,-4.1 17.6,-11.1 23.9,-15.6c6.3,-4.5 16.9,-12.7 23.5,-18.2c6.7,-5.6 18.4,-16.6 26.1,-24.5c7.8,-7.9 17.7,-18.9 22.1,-24.4c4.4,-5.5 11.2,-14.5 15.1,-20c3.9,-5.5 10.1,-15 13.8,-21c3.6,-6 9.4,-16.6 12.9,-23.5c3.5,-6.9 8.8,-18.1 11.6,-25c2.9,-6.9 7.2,-18.4 9.6,-25.5c2.3,-7.1 5.6,-18.4 7.3,-25c1.6,-6.6 3.9,-16.7 5,-22.5c1.1,-5.8 2.8,-16.8 3.7,-24.5c1.4,-10.4 1.8,-21.1 1.9,-42c0,-17 -0.5,-32.1 -1.3,-38.5c-0.7,-5.8 -2.4,-17 -3.8,-25c-1.4,-8 -3.9,-19.9 -5.5,-26.5c-1.7,-6.6 -4.4,-16.3 -6.1,-21.5c-1.6,-5.2 -5.5,-15.8 -8.5,-23.5c-3.1,-7.7 -8.5,-19.9 -12,-27c-3.6,-7.2 -9.9,-18.6 -14.1,-25.5c-4.1,-6.9 -10.7,-17 -14.6,-22.5c-3.9,-5.5 -10.6,-14.5 -15,-20c-4.4,-5.5 -15.7,-17.7 -25.1,-27.1c-9.3,-9.3 -22.6,-21.5 -29.5,-27c-6.9,-5.4 -17.9,-13.6 -24.5,-18c-6.6,-4.5 -16.5,-10.7 -22,-13.9c-5.5,-3.1 -14.3,-7.9 -19.5,-10.5c-5.2,-2.6 -15.1,-7.1 -22,-10c-6.9,-2.9 -18.4,-7.2 -25.5,-9.6c-7.1,-2.3 -17.7,-5.4 -23.5,-6.9c-5.8,-1.5 -14.8,-3.5 -20,-4.6c-5.2,-1.1 -16.2,-2.9 -24.5,-4c-10.6,-1.4 -22.6,-2.1 -40.5,-2.4c-14,-0.2 -30,0 -35.5,0.5z" fill="#daaced" stroke="null"/>
   <path id="Path 2" class="s2" d="m194.5,731.6c-11,0.4 -26.1,1.2 -33.5,1.8c-7.4,0.7 -20.9,2.1 -30,3.2c-9.1,1.1 -24.6,3.3 -34.5,5c-9.9,1.7 -27,5 -38,7.5c-11,2.4 -28.6,6.8 -39,9.7l-19,5.4c-0.4,185.4 -0.4,239.3 -0.3,239.3c0.2,0 5.9,-2.4 12.8,-5.4c6.9,-2.9 18.8,-7.6 26.5,-10.4c7.7,-2.8 18.3,-6.4 23.5,-8.1c5.2,-1.6 14.5,-4.4 20.5,-6c6,-1.7 17.1,-4.4 24.5,-6c7.4,-1.7 20.5,-4.2 29,-5.5c8.5,-1.4 21.6,-3.2 29,-4.1c7.4,-0.8 23.2,-1.9 35,-2.4c12.8,-0.6 30,-0.6 42.5,-0.1c11.6,0.5 27.1,1.6 34.5,2.4c7.4,0.8 18.2,2.2 24,3.1c5.8,0.8 18.1,3.1 27.5,5c9.4,1.9 22.9,5 30,7c7.1,1.9 20,5.8 28.5,8.6c8.5,2.8 21.8,7.6 29.5,10.6c7.7,3.1 20.3,8.4 28,12c7.7,3.5 20.2,9.8 27.8,13.9c7.5,4.1 19.9,11.2 27.4,15.8c7.6,4.6 20.3,13.1 28.3,18.7c8,5.7 19.9,14.7 26.5,20c6.6,5.3 17.4,14.6 24,20.6c6.6,6.1 17.4,16.6 24,23.4c6.6,6.8 16.1,17.1 21,22.9c5,5.8 12.6,15.2 17.1,21c4.4,5.8 11.2,15 15.1,20.5c3.9,5.5 10.2,15 14,21c3.8,6 10.5,17.3 14.8,25c4.4,7.7 11.1,20.7 15.1,29c3.9,8.2 10.3,22.9 14.2,32.5c3.8,9.6 9.1,24 11.6,32c2.6,8 6.5,21.2 8.6,29.5c2.2,8.2 5.3,21.5 6.9,29.5c1.6,8 3.8,20.6 5,28c1.1,7.4 2.5,19.3 3.2,26.5c0.6,7.2 1.4,15.7 1.8,19c0.7,5.6 0.8,5.2 1.5,-6.5c0.4,-6.9 1.4,-20.2 2.2,-29.5c0.8,-9.3 2.4,-23.5 3.5,-31.5c1,-8 3.1,-21.3 4.5,-29.5c1.4,-8.3 4.6,-24.2 7.1,-35.5c2.5,-11.3 7.4,-30.4 10.8,-42.5c3.5,-12.1 8.7,-28.8 11.5,-37c2.8,-8.3 8.5,-23.5 12.7,-34c4.1,-10.5 11.3,-27.3 16,-37.5c4.6,-10.2 12.6,-26.4 17.7,-36c5.1,-9.6 12.9,-23.6 17.3,-31c7.8,-13.3 7.9,-13.5 6.2,-16c-0.9,-1.4 -6.4,-9.7 -12.2,-18.5c-5.8,-8.8 -15.3,-22.5 -21.3,-30.5c-5.9,-8 -15.1,-19.9 -20.4,-26.5c-5.4,-6.6 -13.7,-16.5 -18.5,-22c-4.8,-5.5 -15.1,-16.7 -22.9,-24.9c-7.7,-8.2 -21.1,-21.5 -29.6,-29.4c-8.5,-8 -22.5,-20.3 -31,-27.5c-8.5,-7.1 -22.7,-18.4 -31.5,-24.9c-8.8,-6.6 -23.9,-17.3 -33.5,-23.7c-9.6,-6.5 -23.1,-15.2 -30,-19.3c-6.9,-4.1 -20.1,-11.7 -29.5,-16.8c-9.4,-5.2 -24,-12.7 -32.5,-16.8c-8.5,-4.1 -21.8,-10.1 -29.5,-13.4c-7.7,-3.3 -21.4,-8.9 -30.5,-12.3c-9.1,-3.4 -24.8,-9 -35,-12.3c-10.2,-3.3 -25.3,-7.8 -33.5,-10.1c-8.3,-2.2 -22.9,-5.9 -32.5,-8c-9.6,-2.2 -26.7,-5.6 -38,-7.5c-11.3,-2 -25.9,-4.2 -32.5,-5.1c-6.6,-0.8 -19.4,-2.2 -28.5,-3c-9.1,-0.8 -28.2,-1.9 -42.5,-2.5c-14.3,-0.5 -27.6,-0.9 -29.5,-0.8c-1.9,0.1 -12.5,0.4 -23.5,0.9z" fill="#ad5fd5" stroke="null"/>
   <path id="Path 3" class="s3" d="m1483,731.2c-4.7,0.1 -15.9,0.7 -25,1.3c-9.1,0.6 -24.6,2 -34.5,3.1c-9.9,1.1 -22.5,2.7 -28,3.5c-5.5,0.8 -16.3,2.7 -24,4.1c-7.7,1.3 -21,4 -29.5,5.9c-8.5,1.9 -23.2,5.5 -32.5,8c-9.3,2.5 -25.3,7.3 -35.5,10.6c-10.2,3.3 -25.9,8.9 -35,12.3c-9.1,3.4 -22.8,9 -30.5,12.3c-7.7,3.3 -20.8,9.2 -29,13.1c-8.3,4 -21.8,10.9 -30,15.3c-8.3,4.5 -21.8,12.2 -30,17.1c-8.3,4.9 -22.9,14.3 -32.5,20.7c-9.6,6.5 -24.7,17.2 -33.5,23.8c-8.8,6.6 -22.1,17.1 -29.6,23.3c-7.5,6.3 -20.1,17.3 -28,24.5c-7.9,7.2 -21.1,20.1 -29.4,28.6c-8.3,8.4 -20.6,21.9 -27.6,29.8c-6.9,8 -16.1,19 -20.5,24.5c-4.4,5.5 -11.4,14.5 -15.5,20c-4.2,5.5 -11.2,15.2 -15.6,21.5c-4.4,6.3 -12.3,18.2 -17.5,26.5c-5.2,8.2 -13.1,21.3 -17.5,29c-4.4,7.7 -11.4,20.5 -15.6,28.5c-4.2,8 -11.3,22.6 -15.7,32.5c-4.5,9.9 -11.5,26.3 -15.5,36.5c-4.1,10.2 -9.7,25.2 -12.5,33.5c-2.8,8.2 -8,24.9 -11.5,37c-3.4,12.1 -8.3,31.2 -10.8,42.5c-2.5,11.3 -5.7,27.2 -7.1,35.5c-1.4,8.2 -3.5,21.5 -4.5,29.5c-1.1,8 -2.7,22.4 -3.5,32c-0.8,9.6 -2,25.2 -2.7,34.5c-0.7,10.6 -0.9,26.9 -0.6,43c0.3,14.3 1.3,34.8 2.2,45.5c0.8,10.7 2.4,26.9 3.5,36c1.1,9.1 3.4,24.6 5.1,34.5c1.6,9.9 5,27 7.4,38c2.5,11 5.1,22 5.8,24.5l1.3,4.5c229.4,0.5 235.4,0.4 234.7,-1.3c-0.3,-0.9 -3.9,-11.4 -7.9,-23.2c-4.1,-11.8 -9.4,-29.6 -11.9,-39.5c-2.4,-9.9 -5.6,-24.3 -7,-32c-1.4,-7.7 -3.4,-20.8 -4.5,-29c-1,-8.3 -2.4,-22 -3.1,-30.5c-0.7,-10 -1,-27.1 -0.6,-48c0.4,-23.7 1.1,-37.1 2.6,-49.5c1.2,-9.3 3.3,-23.5 4.7,-31.5c1.4,-8 3.9,-20.1 5.5,-27c1.6,-6.9 4,-16.8 5.4,-22c1.5,-5.2 4.7,-15.8 7.2,-23.5c2.5,-7.7 7.3,-21.2 10.8,-30c3.4,-8.8 9.1,-22.1 12.5,-29.5c3.5,-7.4 9.3,-19.1 13,-26c3.7,-6.9 9.1,-16.6 12,-21.5c3,-5 9.4,-15.1 14.3,-22.5c5,-7.4 12.7,-18.5 17.3,-24.5c4.5,-6.1 13.1,-16.8 19,-24c5.9,-7.2 19.6,-21.8 30.4,-32.5c10.7,-10.8 25.1,-24.3 32,-30c6.9,-5.7 18.3,-14.7 25.5,-20.1c7.2,-5.3 19.5,-13.9 27.5,-19.2c8,-5.2 20.1,-12.7 27,-16.6c6.9,-4 19.7,-10.7 28.5,-15.1c8.8,-4.3 21.6,-10.2 28.5,-13.1c6.9,-2.8 17.5,-7 23.5,-9.2c6,-2.1 17.3,-5.9 25,-8.3c7.7,-2.4 21.2,-6.2 30,-8.4c8.8,-2.1 22.3,-5.1 30,-6.5c7.7,-1.4 20.8,-3.4 29,-4.5c8.3,-1 21.1,-2.4 28.5,-2.9c7.4,-0.6 25.2,-1.1 39.5,-1.1c14.3,0 32.1,0.5 39.5,1.1c7.4,0.5 20.3,1.9 28.5,2.9c8.3,1.1 21.3,3.1 29,4.5c7.7,1.4 21.2,4.4 30,6.5c8.8,2.2 21.7,5.8 28.8,8c7,2.2 12.9,4 13.2,4c0.3,0 0.5,-52.2 0.5,-116c0,-63.8 -0.3,-116.2 -0.7,-116.4c-0.5,-0.3 -9.8,-2.3 -20.8,-4.5c-11,-2.2 -29.5,-5.4 -41,-7c-11.5,-1.7 -28.7,-3.7 -38,-4.6c-9.3,-0.8 -26.9,-1.9 -39,-2.5c-12.1,-0.5 -27.2,-0.9 -33.5,-0.8c-6.3,0.1 -15.3,0.3 -20,0.5z" fill="#7156ff" stroke="null"/>
   <path id="Path 4" class="s0" d="m207.5,955.2c-4.9,0.1 -15.8,0.7 -24,1.3c-8.3,0.6 -21.8,2 -30,3.1c-8.3,1.1 -21.1,3.1 -28.5,4.5c-7.4,1.4 -20.7,4.3 -29.5,6.4c-8.8,2.2 -22.3,6 -30,8.4c-7.7,2.4 -19.2,6.2 -25.5,8.5c-6.3,2.3 -17.9,6.9 -25.8,10.1l-14.2,6l0,189c15.9,-11.4 26.1,-18.1 33,-22.2c6.9,-4.2 18.3,-10.5 25.5,-14.1c7.2,-3.5 19.3,-8.9 27,-12c7.7,-3 18.3,-6.9 23.5,-8.5c5.2,-1.7 14.9,-4.4 21.5,-6.1c6.6,-1.6 18.5,-4.1 26.5,-5.5c8,-1.4 19.2,-3.1 25,-3.8c6.4,-0.8 21.5,-1.3 38.5,-1.3c20.9,0.1 31.6,0.5 42,1.9c7.7,0.9 18.7,2.6 24.5,3.7c5.8,1.1 15.9,3.4 22.5,5c6.6,1.7 17.9,5 25,7.3c7.1,2.4 18.6,6.7 25.5,9.6c6.9,2.8 18.1,8.1 25,11.6c6.9,3.5 17.4,9.3 23.5,12.9c6.1,3.7 15.5,9.9 21,13.8c5.5,3.9 14.5,10.7 20,15.1c5.5,4.4 16.5,14.3 24.4,22.1c7.9,7.7 18.9,19.4 24.5,26.1c5.5,6.6 13.7,17.2 18.2,23.5c4.5,6.3 11.5,17 15.6,23.9c4.2,6.9 10.5,18.3 14.1,25.5c3.5,7.2 8.9,19.3 12,27c3,7.7 6.9,18.3 8.5,23.5c1.7,5.2 4.4,14.9 6.1,21.5c1.6,6.6 4.1,18.5 5.5,26.5c1.4,8 3.1,19.2 3.8,25c0.8,6.4 1.3,21.5 1.3,38.5c-0.1,20.9 -0.5,31.6 -1.9,42c-0.9,7.7 -2.6,18.7 -3.7,24.5c-1.1,5.8 -3.4,15.9 -5,22.5c-1.7,6.6 -5,17.8 -7.3,25c-2.4,7.2 -6.7,18.6 -9.6,25.5c-2.9,6.9 -7.4,16.8 -10,22c-2.6,5.2 -7.4,14 -10.5,19.5c-3.2,5.5 -6.4,11 -7.1,12.2l-1.4,2.3l189,0c2.5,-5.8 6,-16.1 9.5,-26.5c3.5,-10.5 8.6,-28.2 11.4,-39.5c2.8,-11.3 6.4,-28.4 8,-38c1.7,-9.6 3.8,-24.3 4.8,-32.5c1.4,-12.1 1.8,-23 1.8,-56c0,-27.2 -0.4,-45 -1.3,-53c-0.7,-6.6 -2.2,-18.1 -3.3,-25.5c-1.2,-7.4 -3.4,-20 -5,-28c-1.6,-8 -4.7,-21.3 -6.9,-29.5c-2.1,-8.3 -6,-21.5 -8.6,-29.5c-2.5,-8 -7.8,-22.4 -11.6,-32c-3.9,-9.6 -10.3,-24.3 -14.2,-32.5c-4,-8.3 -10.7,-21.3 -15.1,-29c-4.3,-7.7 -11,-19 -14.8,-25c-3.8,-6.1 -10.1,-15.5 -14,-21c-3.9,-5.5 -10.7,-14.7 -15.1,-20.5c-4.5,-5.8 -12.1,-15.2 -17.1,-21c-4.9,-5.8 -14.4,-16.1 -21,-22.9c-6.6,-6.8 -17.4,-17.3 -24,-23.4c-6.6,-6 -17.4,-15.3 -24,-20.6c-6.6,-5.3 -18.5,-14.3 -26.5,-20c-8,-5.6 -20.7,-14.1 -28.2,-18.7c-7.6,-4.6 -20,-11.7 -27.5,-15.8c-7.6,-4.1 -20.1,-10.4 -27.8,-13.9c-7.7,-3.6 -20.3,-8.9 -28,-12c-7.7,-3 -21,-7.8 -29.5,-10.6c-8.5,-2.8 -21.4,-6.7 -28.5,-8.6c-7.1,-2 -20.6,-5.1 -30,-7c-9.4,-1.9 -21.7,-4.2 -27.5,-5c-5.8,-0.9 -16.6,-2.2 -24,-3.1c-7.4,-0.8 -23.4,-1.9 -35.5,-2.4c-12.1,-0.5 -22.9,-0.9 -24,-0.8c-1.1,0.1 -6.1,0.3 -11,0.5z" fill="#ffffff" stroke="null"/>
   <path id="Path 5" class="s0" d="m1465,956.6c-5.8,0.5 -17.5,1.8 -26,2.9c-8.5,1 -21.8,3.1 -29.5,4.5c-7.7,1.4 -21.2,4.4 -30,6.5c-8.8,2.2 -22.3,6 -30,8.4c-7.7,2.4 -19,6.2 -25,8.3c-6,2.2 -16.6,6.4 -23.5,9.2c-6.9,2.9 -19.7,8.8 -28.5,13.1c-8.8,4.4 -21.6,11.1 -28.5,15.1c-6.9,3.9 -19,11.4 -27,16.6c-8,5.3 -20.3,13.9 -27.5,19.2c-7.2,5.4 -18.6,14.4 -25.5,20.1c-6.9,5.7 -21.3,19.2 -32,30c-10.8,10.7 -24.5,25.3 -30.4,32.5c-5.9,7.2 -14.5,18 -19,24c-4.6,6 -12.3,17.1 -17.3,24.5c-4.9,7.4 -11.3,17.5 -14.3,22.5c-2.9,5 -8.3,14.6 -12,21.5c-3.7,6.9 -9.5,18.6 -13,26c-3.4,7.4 -9.1,20.7 -12.5,29.5c-3.5,8.8 -8.3,22.3 -10.8,30c-2.5,7.7 -5.7,18.3 -7.2,23.5c-1.4,5.2 -3.8,15.1 -5.4,22c-1.6,6.9 -4.1,19 -5.5,27c-1.4,8 -3.5,22.2 -4.7,31.5c-1.5,12.4 -2.2,25.8 -2.6,49.5c-0.4,20.9 -0.1,38 0.6,48c0.7,8.5 2.1,22.2 3.1,30.5c1.1,8.2 3.1,21.3 4.5,29c1.4,7.7 4.4,21.4 6.7,30.5c2.2,9.1 6.5,24.2 9.5,33.5c3.1,9.3 6.8,20.5 8.4,24.7l2.9,7.8c146.5,0 189,-0.2 189,-0.5c0,-0.3 -2.7,-5 -6,-10.5c-3.3,-5.5 -9,-16 -12.6,-23.3c-3.7,-7.2 -8.7,-18.2 -11.2,-24.2c-2.4,-6 -6,-15.5 -7.9,-21c-1.8,-5.5 -4.7,-14.7 -6.3,-20.5c-1.6,-5.8 -4.3,-17.3 -5.9,-25.5c-1.7,-8.3 -3.8,-21.5 -4.8,-29.5c-1.2,-10.4 -1.7,-22 -1.7,-41c0,-19 0.5,-30.6 1.7,-41c1,-8 3.1,-21.3 4.8,-29.5c1.6,-8.3 4.1,-19.3 5.6,-24.5c1.4,-5.2 4.6,-15.3 7,-22.5c2.5,-7.2 6,-16.7 7.9,-21.3c1.9,-4.5 6.8,-15 10.9,-23.2c4.1,-8.3 10.5,-19.8 14.1,-25.8c3.6,-5.9 10,-15.6 14.2,-21.6c4.3,-6 11.7,-15.7 16.5,-21.5c4.8,-5.8 14.9,-16.8 22.5,-24.4c7.5,-7.7 17.7,-17.3 22.7,-21.5c5,-4.2 14,-11.3 20,-15.8c6,-4.5 15.3,-10.8 20.5,-14.1c5.2,-3.3 14.5,-8.7 20.5,-12.1c6,-3.3 17.1,-8.9 24.5,-12.2c7.4,-3.4 19.1,-8.2 26,-10.7c6.9,-2.5 18.6,-6.2 26,-8.4c7.4,-2.1 20.3,-5.2 28.5,-6.8c8.3,-1.7 21.5,-3.8 29.5,-4.8c10.6,-1.2 22,-1.7 42,-1.7c20,0 31.4,0.5 42,1.7c8,1 21.3,3.1 29.5,4.8c8.3,1.6 19.7,4.3 25.5,5.9c5.8,1.6 14.8,4.3 20,6c5.2,1.8 13.9,5 19.3,7.1c5.3,2.2 14,5.9 19.2,8.4l9.5,4.5l0.1,-174.5c-15.2,-4.9 -24.6,-7.7 -30.6,-9.4c-6,-1.7 -17.1,-4.4 -24.5,-6c-7.4,-1.7 -19.1,-4 -26,-5.1c-6.9,-1.2 -19.9,-3 -29,-4.1c-13.1,-1.6 -24.1,-2.1 -53.5,-2.4c-20.3,-0.2 -41.7,0.1 -47.5,0.6z" fill="#ffffff" stroke="null"/>
   <path id="Path 6" class="s3" d="m196.5,1119.1c-2.2,0.2 -8.9,0.9 -15,1.5c-6.1,0.6 -17.3,2.2 -25,3.5c-7.7,1.4 -19.4,3.9 -26,5.5c-6.6,1.7 -16.3,4.4 -21.5,6.1c-5.2,1.6 -15.8,5.5 -23.5,8.5c-7.7,3.1 -19.8,8.5 -27,12.1c-7.2,3.5 -18.8,10 -26,14.3c-7.2,4.3 -17.3,10.9 -22.5,14.6l-9.5,6.8c-0.5,285.3 -0.3,304.3 1.1,314.5c0.8,6.3 2.8,16.5 4.4,22.5c1.5,6.1 4.4,15.1 6.3,20c1.9,5 5.9,14 9,20c3,6.1 8.2,15.1 11.4,20c3.3,5 8.3,11.9 11.3,15.5c2.9,3.6 8.5,9.8 12.4,13.8c3.9,4.1 10.5,10.2 14.6,13.7c4.1,3.4 12,9.3 17.5,13c5.5,3.8 16.3,9.9 24,13.6c7.7,3.7 18.3,8.2 23.5,9.9c5.2,1.7 13.1,4 17.5,5.1c4.4,1 12.7,2.5 18.5,3.4c9,1.2 35.2,1.5 182.8,1.5l172.2,0c7.2,-12 12.3,-21.3 16.1,-28.5c3.7,-7.1 9.1,-18.4 11.9,-25c2.9,-6.6 7.3,-18.5 10,-26.5c2.7,-8 6.2,-19.9 7.9,-26.5c1.6,-6.6 3.9,-16.7 5,-22.5c1.1,-5.8 2.8,-16.8 3.7,-24.5c1.4,-10.4 1.8,-21.1 1.9,-42c0,-17 -0.5,-32.1 -1.3,-38.5c-0.7,-5.8 -2.4,-17 -3.8,-25c-1.4,-8 -3.9,-19.9 -5.5,-26.5c-1.7,-6.6 -4.4,-16.3 -6.1,-21.5c-1.6,-5.2 -5.5,-15.8 -8.5,-23.5c-3.1,-7.7 -8.5,-19.8 -12,-27c-3.6,-7.1 -9.9,-18.6 -14.1,-25.5c-4.1,-6.9 -11.1,-17.6 -15.6,-23.9c-4.5,-6.3 -12.7,-16.9 -18.2,-23.5c-5.6,-6.7 -16.6,-18.4 -24.5,-26.1c-7.9,-7.8 -18.9,-17.7 -24.4,-22.1c-5.5,-4.4 -14.5,-11.2 -20,-15.1c-5.5,-3.9 -14.9,-10.1 -21,-13.8c-6.1,-3.6 -16.6,-9.4 -23.5,-12.9c-6.9,-3.5 -18.1,-8.8 -25,-11.6c-6.9,-2.9 -18.4,-7.2 -25.5,-9.6c-7.1,-2.3 -17.7,-5.4 -23.5,-6.9c-5.8,-1.5 -14.8,-3.5 -20,-4.6c-5.2,-1.1 -16.3,-2.9 -24.5,-4c-10.7,-1.4 -22.4,-2.1 -40.5,-2.3c-14,-0.2 -27.3,-0.2 -29.5,0z" fill="#7156ff" stroke="null"/>
   <path id="Path 7" class="s2" d="m1488,1119.1c-3,0.2 -11.8,1.1 -19.5,2c-7.7,0.8 -20.8,2.8 -29,4.5c-8.3,1.6 -21.1,4.7 -28.5,6.8c-7.4,2.2 -19.1,5.9 -26,8.4c-6.9,2.5 -18.6,7.3 -26,10.7c-7.4,3.3 -18.5,8.9 -24.5,12.2c-6,3.4 -15.3,8.8 -20.5,12.1c-5.2,3.3 -14.5,9.6 -20.5,14.1c-6,4.5 -15,11.6 -20,15.8c-5,4.2 -15.2,13.8 -22.7,21.5c-7.6,7.6 -17.7,18.6 -22.5,24.4c-4.8,5.8 -12.2,15.5 -16.5,21.5c-4.2,6 -10.6,15.7 -14.2,21.7c-3.6,5.9 -10,17.5 -14.1,25.7c-4.1,8.3 -9,18.7 -10.9,23.3c-1.9,4.5 -5.4,14.1 -7.9,21.2c-2.4,7.2 -5.6,17.3 -7,22.5c-1.5,5.2 -4,16.3 -5.6,24.5c-1.7,8.3 -3.8,21.5 -4.8,29.5c-1.2,10.4 -1.7,22 -1.7,41c0,19 0.5,30.6 1.7,41c1,8 3.1,21.3 4.8,29.5c1.6,8.3 4.3,19.7 5.9,25.5c1.6,5.8 4.5,15 6.3,20.5c1.9,5.5 5.5,15 7.9,21c2.5,6.1 7.1,16.2 10.3,22.5c3.1,6.3 8.9,17 12.8,23.8l7.2,12.2c272.1,0 291.9,-0.2 301.8,-1.6c6.1,-0.8 16.2,-2.8 22.2,-4.4c6,-1.5 15,-4.4 20,-6.3c5,-1.9 14,-5.9 20,-9c6,-3 15,-8.2 20,-11.4c5,-3.3 11.9,-8.3 15.5,-11.3c3.6,-2.9 9.8,-8.5 13.8,-12.4c4.1,-3.9 10.2,-10.5 13.7,-14.6c3.4,-4.1 9.3,-12 13,-17.5c3.8,-5.5 9.9,-16.3 13.6,-24c3.7,-7.7 8.2,-18.3 9.9,-23.5c1.7,-5.2 4,-13.1 5.1,-17.5c1,-4.4 2.5,-12.7 3.4,-18.5c1.2,-9 1.5,-34.8 1.5,-179.7l0,-169.3c-14.7,-7 -23.4,-10.7 -28.8,-12.9c-5.3,-2.1 -14,-5.3 -19.2,-7.1c-5.2,-1.7 -14.2,-4.4 -20,-6c-5.8,-1.6 -17.3,-4.3 -25.5,-5.9c-8.3,-1.7 -21.1,-3.7 -28.5,-4.6c-7.4,-0.9 -24.1,-1.8 -37,-1.9c-12.9,-0.2 -26,-0.2 -29,0z" fill="#ad5fd5" stroke="null"/>
   <path id="Path 8" class="s3" d="m1248.7,1833.2c-0.3,0.5 9.2,25.3 21,55.3c11.7,30 25.2,64.3 29.8,76.2l8.5,21.8l31,0c14.7,-37.6 28.1,-71.9 39.4,-100.5c11.2,-28.6 20.2,-52.3 20,-52.8c-0.2,-0.4 -6.5,-0.7 -13.9,-0.7c-12,0 -13.6,0.2 -14.1,1.7c-0.3,1 -10.7,29.5 -23.1,63.3c-12.3,33.8 -22.8,61.8 -23.1,62.2c-0.4,0.4 -11.3,-27.9 -24.2,-63l-23.5,-63.7c-21.2,-0.4 -27.6,-0.2 -27.8,0.2z" fill="#7156ff" stroke="null"/>
   <path id="Path 9" class="s3" d="m660,1909.5l0,77l26,0l0,-154l-26,0l0,77z" fill="#7156ff" stroke="null"/>
   <path id="Path 10" class="s3" d="m973.5,1830.4c-2.8,0.5 -7,1.4 -9.5,2.1c-2.5,0.6 -7.4,2.7 -11,4.6c-3.6,1.9 -7.9,4.7 -9.5,6.2c-1.6,1.5 -4.5,4.5 -6.3,6.5l-3.2,3.7l0,-21l-26,0l0,154l26,0c0.6,-89.8 0.9,-97.3 2.3,-102.3c0.9,-3.1 2.8,-7.8 4.1,-10.5c1.3,-2.6 4.3,-6.7 6.7,-9.1c2.4,-2.4 7.1,-5.7 10.4,-7.2c3.3,-1.6 9.1,-3.3 13,-3.9c5.2,-0.9 9,-0.9 14.5,0c4.1,0.6 9.9,2.2 12.8,3.5c2.8,1.4 7.4,4.6 10,7.2c2.6,2.7 6,7.3 7.4,10.3c1.4,3 3.1,7.9 3.7,10.7c0.7,3.5 1.1,21.8 1.1,53.3l0,48l26,0c0,-95 -0.2,-104.1 -1.6,-110.3c-0.9,-3.9 -3.2,-10.6 -5.2,-14.7c-2.5,-5.4 -5.4,-9.3 -10.1,-14c-4,-4 -9.4,-8 -13.6,-10.2c-3.9,-2 -9.9,-4.4 -13.5,-5.2c-3.6,-0.9 -10.3,-1.8 -15,-2c-4.7,-0.3 -10.8,-0.1 -13.5,0.3z" fill="#7156ff" stroke="null"/>
   <path id="Path 11" class="s3" d="m793.5,1830.6c-3.3,0.5 -7.6,1.4 -9.5,2c-1.9,0.7 -5.8,2.3 -8.5,3.7c-2.8,1.3 -7.2,4.1 -9.8,6.1c-2.7,2 -6.2,5.4 -7.8,7.6l-2.9,4l0,-21.5l-26,0l0,154l26,0c0.6,-88.1 1,-98.5 2.2,-102.5c0.8,-2.7 2.5,-7.2 3.9,-10c1.3,-2.7 4.3,-6.9 6.7,-9.2c2.3,-2.4 7,-5.6 10.4,-7.3c3.5,-1.6 9.4,-3.5 13.3,-4.1c5.3,-0.8 8.9,-0.8 14.5,0c4.1,0.7 9.5,2.1 12,3.2c2.5,1.1 6.3,3.5 8.4,5.2c2.2,1.8 5.1,5 6.6,7.2c1.5,2.2 3.8,6.7 5.1,10l2.4,6l0.5,101.5l26,0l-0.5,-108.5c-4.2,-12.4 -7.3,-18.9 -9.7,-22.4c-2.4,-3.6 -6.6,-8.4 -9.3,-10.8c-2.8,-2.4 -8.6,-6.2 -13,-8.3c-4.4,-2.1 -10.4,-4.3 -13.3,-4.9c-2.8,-0.6 -8.9,-1.3 -13.4,-1.5c-4.6,-0.3 -11,-0.1 -14.3,0.5z" fill="#7156ff" stroke="null"/>
   <path id="Path 12" class="s3" d="m436.5,1830.4c-2.8,0.5 -7.5,1.5 -10.5,2.4c-3,0.9 -8.2,3.2 -11.5,5.2c-3.3,1.9 -8.4,6.1 -11.3,9.3l-5.3,5.7l0.1,-20.5l-26,0l0,154l26,0c0,-83.6 0.3,-93.9 1.5,-99.5c0.9,-3.9 2.7,-9.4 4,-12.3c1.4,-2.8 4.6,-7.4 7.3,-10c2.6,-2.6 7.2,-6 10.2,-7.5c3,-1.4 8.6,-3.1 12.5,-3.7c5,-0.8 9,-0.9 14.3,-0.1c3.9,0.6 9.5,2.2 12.2,3.6c2.8,1.4 6.9,4.2 9.3,6.4c2.3,2.1 5.4,6 6.9,8.7c1.5,2.7 3.4,7.6 4.2,10.9c1.4,5.1 1.6,13.7 1.6,54.7l0,48.8l27,0c0,-78.3 0.4,-96.8 1.1,-100.3c0.6,-2.8 2.4,-7.9 3.9,-11.2c1.7,-3.7 4.8,-7.9 7.9,-10.8c2.8,-2.6 7.5,-5.8 10.3,-7.2c2.9,-1.3 8.4,-2.9 12.3,-3.6c5.2,-0.8 8.8,-0.8 14,0c3.9,0.6 9.4,2.2 12.2,3.6c2.9,1.4 7.4,4.6 9.9,7.2c2.6,2.7 5.8,7 7.1,9.8c1.4,2.7 3.2,7.9 3.9,11.5c1,4.9 1.4,17.8 1.4,53.7l0,47.3l26,0c-0.6,-106.8 -0.6,-107.6 -2.9,-114.5c-1.2,-3.9 -3.9,-9.9 -5.9,-13.5c-2,-3.6 -6.1,-9 -9.2,-12c-3.5,-3.5 -8.3,-7 -13,-9.3c-4.1,-2 -10.4,-4.4 -14,-5.4q-6.5,-1.7 -18,-1.6c-9.9,0 -12.6,0.4 -19.5,2.7c-4.4,1.5 -10.5,4.2 -13.5,6.1c-3,1.8 -7.9,5.9 -10.9,9.1c-2.9,3.3 -6.3,7.9 -7.5,10.2l-2.1,4.4c-5.6,-9.1 -9.9,-14.2 -13.2,-17.2c-3.2,-3 -8.8,-6.9 -12.3,-8.7c-3.6,-1.7 -9.2,-3.8 -12.5,-4.7c-3.3,-0.8 -9.8,-1.7 -14.5,-2c-4.7,-0.3 -10.8,-0.1 -13.5,0.3z" fill="#7156ff" stroke="null"/>
   <path id="Path 13" class="s3" d="m669,1773.6c-1.9,0.4 -4.6,1.7 -6,2.7c-1.4,1 -3.5,3.6 -4.7,5.8c-1.4,2.3 -2.3,5.6 -2.3,8.2c0,2.3 0.6,5.7 1.3,7.5c0.8,1.7 3,4.7 5,6.5c2.1,1.8 5.3,3.5 7.5,3.8c2,0.4 5.3,0.4 7.2,0c1.9,-0.3 4.5,-1.3 5.8,-2.1c1.2,-0.8 3.3,-3 4.7,-4.7c1.4,-2 2.7,-5.4 3.1,-8.3c0.6,-4.1 0.3,-5.9 -1.7,-9.9c-1.5,-3 -3.8,-5.8 -5.9,-7.2c-1.9,-1.2 -5.1,-2.4 -7,-2.7c-1.9,-0.3 -5.1,-0.1 -7,0.4z" fill="#7156ff" stroke="null"/>
   <path id="Path 14" class="s3" d="m148,1773.6c-2.5,0.5 -7.2,1.8 -10.5,2.9c-3.3,1.1 -8.3,3.7 -11,5.8c-2.8,2.1 -6.5,6 -8.3,8.7c-1.8,2.8 -4,7.3 -4.9,10c-1,3.1 -1.7,10 -1.9,18.3l-0.4,13.2l-20,0l0,22l20,0l0,132l26,0l0,-132l32,0l0,-22l-32,0c0,-12.4 0.5,-18.4 1.1,-21.2c0.9,-4 2.2,-6.3 5.3,-9.4c2.8,-2.9 5.8,-4.7 9.6,-5.8c3,-0.9 7.4,-1.6 9.8,-1.6l4.2,0l0,-22c-11.2,0.2 -16.5,0.6 -19,1.1z" fill="#7156ff" stroke="null"/>
   <path id="Path 15" class="s2" d="m752.1,1513c-0.1,1.7 -0.4,5.7 -0.7,9c-0.3,3.3 -1.2,12.5 -2,20.5c-0.8,8 -2.8,22.4 -4.5,32c-1.6,9.6 -5.1,26.5 -7.9,37.5c-2.7,11 -7.4,27.4 -10.3,36.5c-3,9.1 -6.6,19.5 -8.1,23.3l-2.6,6.7l62,0c-2.4,-7.4 -5.1,-18.5 -7.5,-29.5c-2.4,-11 -5.8,-28.1 -7.4,-38c-1.7,-9.9 -4,-25.4 -5.1,-34.5c-1.1,-9.1 -2.7,-26 -3.5,-37.5c-0.8,-11.5 -1.6,-22.8 -1.8,-25c-0.3,-3.1 -0.4,-3.3 -0.6,-1z" fill="#ad5fd5" stroke="null"/>
   <path id="Path 16" fill-rule="evenodd" class="s3" d="m266.5,1830.9c10.2,0.2 16.9,0.9 21,2c3.3,1 9.1,3.3 13,5.3c3.9,1.9 9.3,5.3 12,7.5c2.8,2.1 7.1,6.5 9.8,9.6c2.6,3.1 6.5,9.3 8.6,13.7c2.2,4.4 4.6,10.9 5.5,14.5c0.9,3.6 1.9,10.1 2.2,14.5c0.4,4.4 0.4,11 -0.6,21.5l-123,0l0.6,3.7c0.3,2.1 1.4,6.7 2.4,10.3c1.1,3.6 3.3,8.7 5.1,11.5c1.7,2.7 4.1,6.1 5.3,7.4c1.1,1.3 4.8,4.1 8.1,6.3c3.3,2.1 8.9,4.8 12.5,5.9c4.4,1.4 9.4,2.1 15.5,2.1c5.6,0 11.2,-0.6 15,-1.7c3.3,-0.9 8,-2.9 10.4,-4.4c2.5,-1.4 6.5,-4.9 9,-7.6c2.5,-2.8 5.5,-7.2 8.6,-14.5l14,0.2c13.4,0.3 14,0.4 13.7,2.3c-0.2,1.1 -1.9,5.4 -3.8,9.5c-2,4.1 -5.7,10.2 -8.4,13.5c-2.6,3.3 -7.2,7.8 -10.1,10.1c-3,2.2 -7,5 -8.9,6.1c-1.9,1.2 -6.6,3.2 -10.5,4.6c-3.9,1.4 -10.8,3.1 -15.5,3.7c-5.2,0.8 -12.4,1.1 -18.5,0.7c-5.5,-0.3 -13.3,-1.5 -17.3,-2.7c-3.9,-1.1 -9.6,-3.2 -12.4,-4.6c-2.9,-1.5 -8.2,-4.7 -11.8,-7.3c-3.5,-2.5 -8.8,-7.5 -11.8,-11.1c-2.9,-3.6 -7.1,-10.1 -9.2,-14.5c-2.1,-4.4 -4.6,-10.7 -5.4,-14c-0.9,-3.3 -2,-10.4 -2.6,-15.8c-0.7,-6.6 -0.7,-12.8 0,-19.5c0.6,-5.3 1.7,-12.4 2.6,-15.7c0.8,-3.3 3.3,-9.6 5.4,-14c2.1,-4.4 5.9,-10.6 8.4,-13.8c2.6,-3.1 7.2,-7.7 10.4,-10.2c3.1,-2.5 8.9,-6.1 12.7,-8c3.8,-1.9 10.6,-4.3 15,-5.4c6.7,-1.7 10.5,-2 23,-1.7zm-24.2,26.6c-3.5,1.7 -8.7,5.2 -11.5,7.9c-2.9,2.7 -6.7,7.5 -8.5,10.7c-1.7,3.3 -3.9,8.6 -4.7,11.9c-0.9,3.3 -1.6,7 -1.6,8.2l0,2.3l96,0c-0.9,-7.4 -1.6,-11.3 -2.2,-13.5c-0.6,-2.2 -1.9,-5.8 -3,-8c-1.1,-2.2 -3.7,-6 -5.7,-8.4c-2,-2.4 -5.4,-5.7 -7.6,-7.2c-2.2,-1.5 -7.1,-3.9 -11,-5.4c-5.2,-2 -9.3,-2.8 -16,-3c-4.9,-0.2 -11,0 -13.5,0.5c-2.5,0.6 -7.3,2.4 -10.7,4z" fill="#7156ff" stroke="null"/>
   <path id="Path 17" fill-rule="evenodd" class="s3" d="m1155,1830.6c9.3,-0.1 14.7,0.4 21,2c4.7,1.1 11.7,3.5 15.5,5.4c3.8,1.8 9.9,5.6 13.5,8.3c3.6,2.8 8.6,7.6 11.1,10.9c2.5,3.2 6,8.3 7.7,11.3c1.7,3 4.2,8.9 5.6,13c1.3,4.1 3,12 3.6,17.5c0.6,5.5 0.9,13.1 0.5,17c-0.4,3.8 -1.4,10.2 -2.2,14c-0.8,3.8 -2.7,9.7 -4,13c-1.4,3.3 -4.3,8.7 -6.3,12c-2.1,3.3 -7.3,9.4 -11.7,13.5c-6,5.7 -10.1,8.6 -17.3,12.2c-5.2,2.5 -12.7,5.4 -16.5,6.4c-5.1,1.3 -10.8,1.8 -21,1.8c-11.6,0 -15.4,-0.3 -22,-2.2c-4.4,-1.3 -11.6,-4.2 -16,-6.5c-6,-3 -10.1,-6.2 -16.5,-12.6c-6.3,-6.3 -9.6,-10.7 -12.7,-16.6c-2.3,-4.4 -5.2,-11.6 -6.5,-16c-2,-7 -2.3,-10.2 -2.3,-25c0,-13 0.4,-18.5 1.8,-23.5c0.9,-3.6 3.8,-10.8 6.4,-16c3.8,-7.8 6.2,-11 13.2,-18.1c7.1,-7.2 10.2,-9.4 18.1,-13.3c5.2,-2.6 12.9,-5.6 17,-6.6c5.2,-1.3 11.4,-1.9 20,-1.9zm-24.3,28.6c-2.8,1.4 -7.7,5.1 -10.8,8.2c-3.2,3.3 -6.9,8.3 -8.7,12.1c-1.7,3.6 -3.8,9.2 -4.7,12.5c-0.9,3.7 -1.5,10.5 -1.5,17.5c0,8.3 0.5,13.7 2,19.5c1.2,4.4 3.3,10 4.7,12.5c1.4,2.5 4.2,6.5 6.2,8.9c2,2.3 5.8,5.8 8.6,7.6c2.7,1.8 7.7,4.2 11,5.3c3.3,1.1 8.7,2.3 12,2.7c3.3,0.3 9.2,0.1 13,-0.5c4.4,-0.6 10,-2.5 15,-5c4.4,-2.1 9.9,-5.7 12.3,-7.9c2.3,-2.3 5.8,-6.5 7.7,-9.3c1.9,-2.9 4.4,-7.9 5.5,-11c1.1,-3.2 2.5,-9.3 3.1,-13.5c0.6,-4.3 0.8,-10.9 0.4,-14.8c-0.3,-3.8 -1.3,-9.7 -2.1,-13c-0.9,-3.3 -3,-8.7 -4.7,-12c-1.8,-3.3 -5.7,-8.5 -8.7,-11.5c-3.2,-3.2 -8.3,-6.8 -12,-8.7c-3.6,-1.7 -8.5,-3.6 -11,-4.2c-2.5,-0.6 -8.3,-1 -13,-1c-4.7,0 -10.9,0.7 -13.8,1.5c-2.8,0.8 -7.6,2.6 -10.5,4.1z" fill="#7156ff" stroke="null"/>
   <path id="Path 18" fill-rule="evenodd" class="s3" d="m1489.5,1830.8c12.2,0.3 14.9,0.7 21.5,3c4.1,1.5 9.9,4.2 12.9,6c2.9,1.7 7.7,5.5 10.6,8.2c2.8,2.8 6.2,6.6 9.5,12l0,-27.5l26,0l0,154l-26,0l0,-27l-4.4,5.8c-2.5,3.1 -6.9,7.6 -9.8,9.8c-2.9,2.3 -8,5.5 -11.3,7.2c-3.3,1.7 -8.9,3.9 -12.5,4.9c-4.8,1.3 -9.9,1.8 -20,1.7c-12,0 -14.4,-0.3 -21.5,-2.8c-4.4,-1.5 -11.2,-4.6 -15,-6.9c-3.8,-2.2 -9.9,-7.1 -13.5,-10.7c-3.6,-3.7 -8,-9.1 -9.7,-12.1c-1.8,-3 -4.4,-8.1 -5.7,-11.4c-1.4,-3.3 -3.3,-8.9 -4.3,-12.5c-1.4,-5.1 -1.8,-10.2 -1.8,-23.5c0,-14.8 0.3,-18 2.3,-25c1.3,-4.4 4.1,-11.4 6.3,-15.5c2.1,-4.1 5.9,-10 8.2,-13c2.4,-3 7.3,-7.7 10.8,-10.4c3.5,-2.7 9.8,-6.5 13.9,-8.4c4.1,-1.9 10.2,-4.1 13.5,-4.8c3.9,-0.9 10.9,-1.2 20,-1.1zm-23.4,29.3c-2.9,1.6 -7.8,5.5 -10.7,8.7c-3.2,3.3 -6.8,8.7 -8.8,13c-1.9,3.9 -3.9,9.6 -4.5,12.5c-0.6,2.8 -1.1,9.6 -1.1,15c0,6.6 0.6,12.3 2,17.7c1.2,4.4 3.3,10.2 4.8,13c1.5,2.7 5.2,7.6 8.3,11c3.1,3.3 7.8,7.2 10.5,8.7c2.7,1.4 7.6,3.4 10.9,4.4c3.7,1.1 9.3,1.8 14.5,1.8c5.2,0 10.8,-0.7 14.5,-1.8c3.3,-1 8.2,-3 11,-4.6c2.7,-1.5 7.7,-5.7 11,-9.2c3.3,-3.4 7.3,-8.8 8.7,-11.8c1.5,-3 3.4,-8.4 4.4,-12c1.1,-4.2 1.7,-10.2 1.7,-17c0,-6.8 -0.6,-12.8 -1.8,-17c-0.9,-3.6 -3,-9 -4.5,-12c-1.5,-3 -4.7,-7.7 -7.1,-10.4c-2.4,-2.7 -7.1,-6.7 -10.4,-8.8c-3.3,-2.2 -8.9,-4.8 -12.5,-5.9c-4.5,-1.3 -9.2,-1.9 -15.5,-1.9c-5.6,0.1 -11.1,0.8 -14.5,1.9c-3,0.9 -7.9,3 -10.9,4.7z" fill="#7156ff" stroke="null"/>
  </g>
 </g>
</svg>