<svg version="1.2" xmlns="http://www.w3.org/2000/svg" viewBox="0 0 1676 2096" width="1676" height="2096">
	<title>feminnova - Logotipo</title>
	<style>
		.s0 { fill: #ffffff } 
		.s1 { fill: #daaced } 
		.s2 { fill: #ad5fd5 } 
		.s3 { fill: #7156ff } 
	</style>
	<g id="Background">
		<path id="Path 0" class="s0" d="m171 1.6c-5.2 0.8-14.2 2.6-20 4-5.8 1.4-14.8 4.2-20 6.1-5.2 2-14.7 6.1-21 9.3-6.3 3.2-15.5 8.5-20.5 11.7-5 3.3-11.9 8.3-15.5 11.3-3.6 2.9-9.8 8.5-13.8 12.4-4.1 3.9-10.2 10.5-13.7 14.6-3.4 4.1-9.3 12-13 17.5-3.8 5.5-9.9 16.3-13.6 24-3.7 7.7-8.3 18.7-10.2 24.5-1.9 5.8-4.4 14.8-5.5 20-1.1 5.2-2.6 13.8-3.2 19-0.8 6.9-1 88.9-0.8 297.6l0.3 288.1c29.4-8.3 47-12.7 58-15.1 11-2.5 28.1-5.8 38-7.5 9.9-1.7 23.4-3.7 30-4.6 6.6-0.8 19.4-2.2 28.5-3 9.1-0.8 28-1.9 42-2.4 16-0.6 35-0.6 51 0 14 0.5 32.9 1.6 42 2.4 9.1 0.8 21.9 2.2 28.5 3 6.6 0.9 21.2 3.1 32.5 5.1 11.3 1.9 28.4 5.3 38 7.5 9.6 2.1 24.3 5.8 32.5 8 8.3 2.3 23.3 6.8 33.5 10.1 10.2 3.3 25.9 8.9 35 12.3 9.1 3.4 22.8 9 30.5 12.3 7.7 3.3 21 9.3 29.5 13.4 8.5 4.1 23.1 11.6 32.5 16.8 9.4 5.1 22.6 12.7 29.5 16.8 6.9 4.1 20.4 12.8 30 19.3 9.6 6.4 24.7 17.1 33.5 23.7 8.8 6.5 23 17.8 31.5 24.9 8.5 7.2 22.5 19.5 31 27.5 8.5 7.9 21.9 21.2 29.6 29.4 7.8 8.2 18.1 19.4 22.9 24.9 4.8 5.5 13.1 15.4 18.5 22 5.3 6.6 14.3 18.3 20.1 26 5.7 7.7 15.4 21.7 21.6 31 6.2 9.3 11.8 17.9 12.6 19 1.3 1.9 1.7 1.5 6.8-6.5 2.9-4.7 8.7-13.5 12.8-19.5 4.1-6 11.9-17.1 17.4-24.5 5.5-7.4 13.6-18 18.1-23.5 4.4-5.5 13.6-16.5 20.5-24.5 7-7.9 19.3-21.4 27.6-29.8 8.2-8.5 21.5-21.4 29.4-28.6 7.9-7.2 20.5-18.2 28-24.5 7.5-6.2 20.8-16.7 29.6-23.3 8.8-6.6 23.9-17.3 33.5-23.8 9.6-6.4 24.2-15.8 32.5-20.7 8.2-4.9 21.7-12.6 30-17.1 8.2-4.4 21.7-11.3 30-15.3 8.2-3.9 21.3-9.8 29-13.1 7.7-3.3 21.4-8.9 30.5-12.3 9.1-3.4 24.8-9 35-12.3 10.2-3.3 26.2-8.1 35.5-10.6 9.3-2.5 24-6.1 32.5-8 8.5-1.9 21.8-4.6 29.5-6 7.7-1.4 20.3-3.4 28-4.5 7.7-1.1 20.5-2.7 28.5-3.5 8-0.9 21-2 29-2.5 8-0.6 23.3-1.3 34-1.6 10.7-0.4 30.5-0.2 44 0.4 13.5 0.7 31.9 1.8 41 2.7 9.1 0.8 26 2.8 37.5 4.5 11.5 1.6 30 4.8 41 7 11 2.2 20.3 4.2 20.7 4.5 0.5 0.2 0.8-126.7 0.8-282.1 0-251.9-0.2-283.7-1.6-293.8-0.8-6.1-2.8-16.1-4.4-22.2-1.5-6.1-4.4-15.1-6.3-20-1.9-5-5.9-14-9-20-3-6.1-8.2-15.1-11.4-20-3.3-5-8.3-11.9-11.3-15.5-2.9-3.6-8.5-9.8-12.4-13.8-3.9-4.1-10.5-10.2-14.6-13.7-4.1-3.4-12-9.3-17.5-13-5.5-3.8-16.3-9.9-24-13.6-7.7-3.7-18.3-8.2-23.5-9.9-5.2-1.7-13.1-4-17.5-5.1-4.4-1-12.7-2.5-18.5-3.4-9.2-1.3-88.9-1.5-667-1.4-552.7 0.1-658 0.3-666 1.5z"/>
		<path id="Path 1" class="s1" d="m810.5 53c-5.5 0.5-15 1.6-21 2.5-6 0.9-16.4 2.7-23 4-6.6 1.3-18.5 4.3-26.5 6.5-8 2.3-21 6.6-29 9.7-8 3-20.4 8.3-27.5 11.7-7.1 3.4-18 9.1-24 12.5-6 3.5-16.9 10.3-24 15.2-7.1 4.8-18 12.7-24 17.5-6 4.9-18.7 16.5-28.1 25.9-9.3 9.3-21.5 22.6-27 29.5-5.4 6.9-13.6 17.9-18 24.5-4.5 6.6-10.7 16.5-13.9 22-3.1 5.5-7.9 14.3-10.5 19.5-2.6 5.2-7.1 15.1-10 22-2.9 6.9-7.2 18.4-9.6 25.5-2.3 7.1-5.6 18.4-7.3 25-1.6 6.6-3.9 16.7-5 22.5-1.1 5.8-2.8 16.8-3.7 24.5-1.4 10.4-1.8 21.1-1.9 42 0 17 0.5 32.1 1.3 38.5 0.7 5.8 2.4 17 3.8 25 1.4 8 3.9 19.9 5.5 26.5 1.7 6.6 4.4 16.3 6.1 21.5 1.6 5.2 5.5 15.8 8.5 23.5 3.1 7.7 8.5 19.9 12 27 3.6 7.1 9.9 18.6 14.1 25.5 4.1 6.9 11.1 17.6 15.6 23.9 4.5 6.3 12.7 16.9 18.2 23.5 5.6 6.7 16.6 18.4 24.5 26.1 7.9 7.8 18.9 17.7 24.4 22.1 5.5 4.4 14.5 11.2 20 15.1 5.5 3.9 15 10.1 21 13.8 6 3.6 16.6 9.4 23.5 12.9 6.9 3.5 18.1 8.8 25 11.6 6.9 2.9 18.4 7.2 25.5 9.6 7.1 2.3 18.4 5.6 25 7.3 6.6 1.6 16.7 3.9 22.5 5 5.8 1.1 16.8 2.8 24.5 3.7 10.4 1.4 21.1 1.8 42 1.9 17 0 32.1-0.5 38.5-1.3 5.8-0.7 17-2.4 25-3.8 8-1.4 19.9-3.9 26.5-5.5 6.6-1.7 16.3-4.4 21.5-6.1 5.2-1.6 15.8-5.5 23.5-8.5 7.7-3.1 19.9-8.5 27-12 7.1-3.6 18.6-9.9 25.5-14.1 6.9-4.1 17.6-11.1 23.9-15.6 6.3-4.5 16.9-12.7 23.5-18.2 6.7-5.6 18.4-16.6 26.1-24.5 7.8-7.9 17.7-18.9 22.1-24.4 4.4-5.5 11.2-14.5 15.1-20 3.9-5.5 10.1-15 13.8-21 3.6-6 9.4-16.6 12.9-23.5 3.5-6.9 8.8-18.1 11.6-25 2.9-6.9 7.2-18.4 9.6-25.5 2.3-7.1 5.6-18.4 7.3-25 1.6-6.6 3.9-16.7 5-22.5 1.1-5.8 2.8-16.8 3.7-24.5 1.4-10.4 1.8-21.1 1.9-42 0-17-0.5-32.1-1.3-38.5-0.7-5.8-2.4-17-3.8-25-1.4-8-3.9-19.9-5.5-26.5-1.7-6.6-4.4-16.3-6.1-21.5-1.6-5.2-5.5-15.8-8.5-23.5-3.1-7.7-8.5-19.9-12-27-3.6-7.2-9.9-18.6-14.1-25.5-4.1-6.9-10.7-17-14.6-22.5-3.9-5.5-10.6-14.5-15-20-4.4-5.5-15.7-17.7-25.1-27.1-9.3-9.3-22.6-21.5-29.5-27-6.9-5.4-17.9-13.6-24.5-18-6.6-4.5-16.5-10.7-22-13.9-5.5-3.1-14.3-7.9-19.5-10.5-5.2-2.6-15.1-7.1-22-10-6.9-2.9-18.4-7.2-25.5-9.6-7.1-2.3-17.7-5.4-23.5-6.9-5.8-1.5-14.8-3.5-20-4.6-5.2-1.1-16.2-2.9-24.5-4-10.6-1.4-22.6-2.1-40.5-2.4-14-0.2-30 0-35.5 0.5z"/>
		<path id="Path 2" class="s2" d="m194.5 729.1c-11 0.4-26.1 1.2-33.5 1.8-7.4 0.7-20.9 2.1-30 3.2-9.1 1.1-24.6 3.3-34.5 5-9.9 1.7-27 5-38 7.5-11 2.4-28.6 6.8-39 9.7l-19 5.4c-0.4 185.4-0.4 239.3-0.3 239.3 0.2 0 5.9-2.4 12.8-5.4 6.9-2.9 18.8-7.6 26.5-10.4 7.7-2.8 18.3-6.4 23.5-8.1 5.2-1.6 14.5-4.4 20.5-6 6-1.7 17.1-4.4 24.5-6 7.4-1.7 20.5-4.2 29-5.5 8.5-1.4 21.6-3.2 29-4.1 7.4-0.8 23.2-1.9 35-2.4 12.8-0.6 30-0.6 42.5-0.1 11.6 0.5 27.1 1.6 34.5 2.4 7.4 0.8 18.2 2.2 24 3.1 5.8 0.8 18.1 3.1 27.5 5 9.4 1.9 22.9 5 30 7 7.1 1.9 20 5.8 28.5 8.6 8.5 2.8 21.8 7.6 29.5 10.6 7.7 3.1 20.3 8.4 28 12 7.7 3.5 20.2 9.8 27.8 13.9 7.5 4.1 19.9 11.2 27.4 15.8 7.6 4.6 20.3 13.1 28.3 18.7 8 5.7 19.9 14.7 26.5 20 6.6 5.3 17.4 14.6 24 20.6 6.6 6.1 17.4 16.6 24 23.4 6.6 6.8 16.1 17.1 21 22.9 5 5.8 12.6 15.2 17.1 21 4.4 5.8 11.2 15 15.1 20.5 3.9 5.5 10.2 15 14 21 3.8 6 10.5 17.3 14.8 25 4.4 7.7 11.1 20.7 15.1 29 3.9 8.2 10.3 22.9 14.2 32.5 3.8 9.6 9.1 24 11.6 32 2.6 8 6.5 21.2 8.6 29.5 2.2 8.2 5.3 21.5 6.9 29.5 1.6 8 3.8 20.6 5 28 1.1 7.4 2.5 19.3 3.2 26.5 0.6 7.2 1.4 15.7 1.8 19 0.7 5.6 0.8 5.2 1.5-6.5 0.4-6.9 1.4-20.2 2.2-29.5 0.8-9.3 2.4-23.5 3.5-31.5 1-8 3.1-21.3 4.5-29.5 1.4-8.3 4.6-24.2 7.1-35.5 2.5-11.3 7.4-30.4 10.8-42.5 3.5-12.1 8.7-28.8 11.5-37 2.8-8.3 8.5-23.5 12.7-34 4.1-10.5 11.3-27.3 16-37.5 4.6-10.2 12.6-26.4 17.7-36 5.1-9.6 12.9-23.6 17.3-31 7.8-13.3 7.9-13.5 6.2-16-0.9-1.4-6.4-9.7-12.2-18.5-5.8-8.8-15.3-22.5-21.3-30.5-5.9-8-15.1-19.9-20.4-26.5-5.4-6.6-13.7-16.5-18.5-22-4.8-5.5-15.1-16.7-22.9-24.9-7.7-8.2-21.1-21.5-29.6-29.4-8.5-8-22.5-20.3-31-27.5-8.5-7.1-22.7-18.4-31.5-24.9-8.8-6.6-23.9-17.3-33.5-23.7-9.6-6.5-23.1-15.2-30-19.3-6.9-4.1-20.1-11.7-29.5-16.8-9.4-5.2-24-12.7-32.5-16.8-8.5-4.1-21.8-10.1-29.5-13.4-7.7-3.3-21.4-8.9-30.5-12.3-9.1-3.4-24.8-9-35-12.3-10.2-3.3-25.3-7.8-33.5-10.1-8.3-2.2-22.9-5.9-32.5-8-9.6-2.2-26.7-5.6-38-7.5-11.3-2-25.9-4.2-32.5-5.1-6.6-0.8-19.4-2.2-28.5-3-9.1-0.8-28.2-1.9-42.5-2.5-14.3-0.5-27.6-0.9-29.5-0.8-1.9 0.1-12.5 0.4-23.5 0.9z"/>
		<path id="Path 3" class="s3" d="m1483 728.7c-4.7 0.1-15.9 0.7-25 1.3-9.1 0.6-24.6 2-34.5 3.1-9.9 1.1-22.5 2.7-28 3.5-5.5 0.8-16.3 2.7-24 4.1-7.7 1.3-21 4-29.5 5.9-8.5 1.9-23.2 5.5-32.5 8-9.3 2.5-25.3 7.3-35.5 10.6-10.2 3.3-25.9 8.9-35 12.3-9.1 3.4-22.8 9-30.5 12.3-7.7 3.3-20.8 9.2-29 13.1-8.3 4-21.8 10.9-30 15.3-8.3 4.5-21.8 12.2-30 17.1-8.3 4.9-22.9 14.3-32.5 20.7-9.6 6.5-24.7 17.2-33.5 23.8-8.8 6.6-22.1 17.1-29.6 23.3-7.5 6.3-20.1 17.3-28 24.5-7.9 7.2-21.1 20.1-29.4 28.6-8.3 8.4-20.6 21.9-27.6 29.8-6.9 8-16.1 19-20.5 24.5-4.4 5.5-11.4 14.5-15.5 20-4.2 5.5-11.2 15.2-15.6 21.5-4.4 6.3-12.3 18.2-17.5 26.5-5.2 8.2-13.1 21.3-17.5 29-4.4 7.7-11.4 20.5-15.6 28.5-4.2 8-11.3 22.6-15.7 32.5-4.5 9.9-11.5 26.3-15.5 36.5-4.1 10.2-9.7 25.2-12.5 33.5-2.8 8.2-8 24.9-11.5 37-3.4 12.1-8.3 31.2-10.8 42.5-2.5 11.3-5.7 27.2-7.1 35.5-1.4 8.2-3.5 21.5-4.5 29.5-1.1 8-2.7 22.4-3.5 32-0.8 9.6-2 25.2-2.7 34.5-0.7 10.6-0.9 26.9-0.6 43 0.3 14.3 1.3 34.8 2.2 45.5 0.8 10.7 2.4 26.9 3.5 36 1.1 9.1 3.4 24.6 5.1 34.5 1.6 9.9 5 27 7.4 38 2.5 11 5.1 22 5.8 24.5l1.3 4.5c229.4 0.5 235.4 0.4 234.7-1.3-0.3-0.9-3.9-11.4-7.9-23.2-4.1-11.8-9.4-29.6-11.9-39.5-2.4-9.9-5.6-24.3-7-32-1.4-7.7-3.4-20.8-4.5-29-1-8.3-2.4-22-3.1-30.5-0.7-10-1-27.1-0.6-48 0.4-23.7 1.1-37.1 2.6-49.5 1.2-9.3 3.3-23.5 4.7-31.5 1.4-8 3.9-20.1 5.5-27 1.6-6.9 4-16.8 5.4-22 1.5-5.2 4.7-15.8 7.2-23.5 2.5-7.7 7.3-21.2 10.8-30 3.4-8.8 9.1-22.1 12.5-29.5 3.5-7.4 9.3-19.1 13-26 3.7-6.9 9.1-16.6 12-21.5 3-5 9.4-15.1 14.3-22.5 5-7.4 12.7-18.5 17.3-24.5 4.5-6.1 13.1-16.8 19-24 5.9-7.2 19.6-21.8 30.4-32.5 10.7-10.8 25.1-24.3 32-30 6.9-5.7 18.3-14.7 25.5-20.1 7.2-5.3 19.5-13.9 27.5-19.2 8-5.2 20.1-12.7 27-16.6 6.9-4 19.7-10.7 28.5-15.1 8.8-4.3 21.6-10.2 28.5-13.1 6.9-2.8 17.5-7 23.5-9.2 6-2.1 17.3-5.9 25-8.3 7.7-2.4 21.2-6.2 30-8.4 8.8-2.1 22.3-5.1 30-6.5 7.7-1.4 20.8-3.4 29-4.5 8.3-1 21.1-2.4 28.5-2.9 7.4-0.6 25.2-1.1 39.5-1.1 14.3 0 32.1 0.5 39.5 1.1 7.4 0.5 20.3 1.9 28.5 2.9 8.3 1.1 21.3 3.1 29 4.5 7.7 1.4 21.2 4.4 30 6.5 8.8 2.2 21.7 5.8 28.8 8 7 2.2 12.9 4 13.2 4 0.3 0 0.5-52.2 0.5-116 0-63.8-0.3-116.2-0.7-116.4-0.5-0.3-9.8-2.3-20.8-4.5-11-2.2-29.5-5.4-41-7-11.5-1.7-28.7-3.7-38-4.6-9.3-0.8-26.9-1.9-39-2.5-12.1-0.5-27.2-0.9-33.5-0.8-6.3 0.1-15.3 0.3-20 0.5z"/>
		<path id="Path 4" class="s0" d="m207.5 952.7c-4.9 0.1-15.8 0.7-24 1.3-8.3 0.6-21.8 2-30 3.1-8.3 1.1-21.1 3.1-28.5 4.5-7.4 1.4-20.7 4.3-29.5 6.4-8.8 2.2-22.3 6-30 8.4-7.7 2.4-19.2 6.2-25.5 8.5-6.3 2.3-17.9 6.9-25.8 10.1l-14.2 6v189c15.9-11.4 26.1-18.1 33-22.2 6.9-4.2 18.3-10.5 25.5-14.1 7.2-3.5 19.3-8.9 27-12 7.7-3 18.3-6.9 23.5-8.5 5.2-1.7 14.9-4.4 21.5-6.1 6.6-1.6 18.5-4.1 26.5-5.5 8-1.4 19.2-3.1 25-3.8 6.4-0.8 21.5-1.3 38.5-1.3 20.9 0.1 31.6 0.5 42 1.9 7.7 0.9 18.7 2.6 24.5 3.7 5.8 1.1 15.9 3.4 22.5 5 6.6 1.7 17.9 5 25 7.3 7.1 2.4 18.6 6.7 25.5 9.6 6.9 2.8 18.1 8.1 25 11.6 6.9 3.5 17.4 9.3 23.5 12.9 6.1 3.7 15.5 9.9 21 13.8 5.5 3.9 14.5 10.7 20 15.1 5.5 4.4 16.5 14.3 24.4 22.1 7.9 7.7 18.9 19.4 24.5 26.1 5.5 6.6 13.7 17.2 18.2 23.5 4.5 6.3 11.5 17 15.6 23.9 4.2 6.9 10.5 18.3 14.1 25.5 3.5 7.2 8.9 19.3 12 27 3 7.7 6.9 18.3 8.5 23.5 1.7 5.2 4.4 14.9 6.1 21.5 1.6 6.6 4.1 18.5 5.5 26.5 1.4 8 3.1 19.2 3.8 25 0.8 6.4 1.3 21.5 1.3 38.5-0.1 20.9-0.5 31.6-1.9 42-0.9 7.7-2.6 18.7-3.7 24.5-1.1 5.8-3.4 15.9-5 22.5-1.7 6.6-5 17.8-7.3 25-2.4 7.2-6.7 18.6-9.6 25.5-2.9 6.9-7.4 16.8-10 22-2.6 5.2-7.4 14-10.5 19.5-3.2 5.5-6.4 11-7.1 12.2l-1.4 2.3h189c2.5-5.8 6-16.1 9.5-26.5 3.5-10.5 8.6-28.2 11.4-39.5 2.8-11.3 6.4-28.4 8-38 1.7-9.6 3.8-24.3 4.8-32.5 1.4-12.1 1.8-23 1.8-56 0-27.2-0.4-45-1.3-53-0.7-6.6-2.2-18.1-3.3-25.5-1.2-7.4-3.4-20-5-28-1.6-8-4.7-21.3-6.9-29.5-2.1-8.3-6-21.5-8.6-29.5-2.5-8-7.8-22.4-11.6-32-3.9-9.6-10.3-24.3-14.2-32.5-4-8.3-10.7-21.3-15.1-29-4.3-7.7-11-19-14.8-25-3.8-6.1-10.1-15.5-14-21-3.9-5.5-10.7-14.7-15.1-20.5-4.5-5.8-12.1-15.2-17.1-21-4.9-5.8-14.4-16.1-21-22.9-6.6-6.8-17.4-17.3-24-23.4-6.6-6-17.4-15.3-24-20.6-6.6-5.3-18.5-14.3-26.5-20-8-5.6-20.7-14.1-28.2-18.7-7.6-4.6-20-11.7-27.5-15.8-7.6-4.1-20.1-10.4-27.8-13.9-7.7-3.6-20.3-8.9-28-12-7.7-3-21-7.8-29.5-10.6-8.5-2.8-21.4-6.7-28.5-8.6-7.1-2-20.6-5.1-30-7-9.4-1.9-21.7-4.2-27.5-5-5.8-0.9-16.6-2.2-24-3.1-7.4-0.8-23.4-1.9-35.5-2.4-12.1-0.5-22.9-0.9-24-0.8-1.1 0.1-6.1 0.3-11 0.5z"/>
		<path id="Path 5" class="s0" d="m1465 954.1c-5.8 0.5-17.5 1.8-26 2.9-8.5 1-21.8 3.1-29.5 4.5-7.7 1.4-21.2 4.4-30 6.5-8.8 2.2-22.3 6-30 8.4-7.7 2.4-19 6.2-25 8.3-6 2.2-16.6 6.4-23.5 9.2-6.9 2.9-19.7 8.8-28.5 13.1-8.8 4.4-21.6 11.1-28.5 15.1-6.9 3.9-19 11.4-27 16.6-8 5.3-20.3 13.9-27.5 19.2-7.2 5.4-18.6 14.4-25.5 20.1-6.9 5.7-21.3 19.2-32 30-10.8 10.7-24.5 25.3-30.4 32.5-5.9 7.2-14.5 18-19 24-4.6 6-12.3 17.1-17.3 24.5-4.9 7.4-11.3 17.5-14.3 22.5-2.9 5-8.3 14.6-12 21.5-3.7 6.9-9.5 18.6-13 26-3.4 7.4-9.1 20.7-12.5 29.5-3.5 8.8-8.3 22.3-10.8 30-2.5 7.7-5.7 18.3-7.2 23.5-1.4 5.2-3.8 15.1-5.4 22-1.6 6.9-4.1 19-5.5 27-1.4 8-3.5 22.2-4.7 31.5-1.5 12.4-2.2 25.8-2.6 49.5-0.4 20.9-0.1 38 0.6 48 0.7 8.5 2.1 22.2 3.1 30.5 1.1 8.2 3.1 21.3 4.5 29 1.4 7.7 4.4 21.4 6.7 30.5 2.2 9.1 6.5 24.2 9.5 33.5 3.1 9.3 6.8 20.5 8.4 24.7l2.9 7.8c146.5 0 189-0.2 189-0.5 0-0.3-2.7-5-6-10.5-3.3-5.5-9-16-12.6-23.3-3.7-7.2-8.7-18.2-11.2-24.2-2.4-6-6-15.5-7.9-21-1.8-5.5-4.7-14.7-6.3-20.5-1.6-5.8-4.3-17.3-5.9-25.5-1.7-8.3-3.8-21.5-4.8-29.5-1.2-10.4-1.7-22-1.7-41 0-19 0.5-30.6 1.7-41 1-8 3.1-21.3 4.8-29.5 1.6-8.3 4.1-19.3 5.6-24.5 1.4-5.2 4.6-15.3 7-22.5 2.5-7.2 6-16.7 7.9-21.3 1.9-4.5 6.8-15 10.9-23.2 4.1-8.3 10.5-19.8 14.1-25.8 3.6-5.9 10-15.6 14.2-21.6 4.3-6 11.7-15.7 16.5-21.5 4.8-5.8 14.9-16.8 22.5-24.4 7.5-7.7 17.7-17.3 22.7-21.5 5-4.2 14-11.3 20-15.8 6-4.5 15.3-10.8 20.5-14.1 5.2-3.3 14.5-8.7 20.5-12.1 6-3.3 17.1-8.9 24.5-12.2 7.4-3.4 19.1-8.2 26-10.7 6.9-2.5 18.6-6.2 26-8.4 7.4-2.1 20.3-5.2 28.5-6.8 8.3-1.7 21.5-3.8 29.5-4.8 10.6-1.2 22-1.7 42-1.7 20 0 31.4 0.5 42 1.7 8 1 21.3 3.1 29.5 4.8 8.3 1.6 19.7 4.3 25.5 5.9 5.8 1.6 14.8 4.3 20 6 5.2 1.8 13.9 5 19.3 7.1 5.3 2.2 14 5.9 19.2 8.4l9.5 4.5 0.1-174.5c-15.2-4.9-24.6-7.7-30.6-9.4-6-1.7-17.1-4.4-24.5-6-7.4-1.7-19.1-4-26-5.1-6.9-1.2-19.9-3-29-4.1-13.1-1.6-24.1-2.1-53.5-2.4-20.3-0.2-41.7 0.1-47.5 0.6z"/>
		<path id="Path 6" class="s3" d="m196.5 1116.6c-2.2 0.2-8.9 0.9-15 1.5-6.1 0.6-17.3 2.2-25 3.5-7.7 1.4-19.4 3.9-26 5.5-6.6 1.7-16.3 4.4-21.5 6.1-5.2 1.6-15.8 5.5-23.5 8.5-7.7 3.1-19.8 8.5-27 12.1-7.2 3.5-18.8 10-26 14.3-7.2 4.3-17.3 10.9-22.5 14.6l-9.5 6.8c-0.5 285.3-0.3 304.3 1.1 314.5 0.8 6.3 2.8 16.5 4.4 22.5 1.5 6.1 4.4 15.1 6.3 20 1.9 5 5.9 14 9 20 3 6.1 8.2 15.1 11.4 20 3.3 5 8.3 11.9 11.3 15.5 2.9 3.6 8.5 9.8 12.4 13.8 3.9 4.1 10.5 10.2 14.6 13.7 4.1 3.4 12 9.3 17.5 13 5.5 3.8 16.3 9.9 24 13.6 7.7 3.7 18.3 8.2 23.5 9.9 5.2 1.7 13.1 4 17.5 5.1 4.4 1 12.7 2.5 18.5 3.4 9 1.2 35.2 1.5 182.8 1.5h172.2c7.2-12 12.3-21.3 16.1-28.5 3.7-7.1 9.1-18.4 11.9-25 2.9-6.6 7.3-18.5 10-26.5 2.7-8 6.2-19.9 7.9-26.5 1.6-6.6 3.9-16.7 5-22.5 1.1-5.8 2.8-16.8 3.7-24.5 1.4-10.4 1.8-21.1 1.9-42 0-17-0.5-32.1-1.3-38.5-0.7-5.8-2.4-17-3.8-25-1.4-8-3.9-19.9-5.5-26.5-1.7-6.6-4.4-16.3-6.1-21.5-1.6-5.2-5.5-15.8-8.5-23.5-3.1-7.7-8.5-19.8-12-27-3.6-7.1-9.9-18.6-14.1-25.5-4.1-6.9-11.1-17.6-15.6-23.9-4.5-6.3-12.7-16.9-18.2-23.5-5.6-6.7-16.6-18.4-24.5-26.1-7.9-7.8-18.9-17.7-24.4-22.1-5.5-4.4-14.5-11.2-20-15.1-5.5-3.9-14.9-10.1-21-13.8-6.1-3.6-16.6-9.4-23.5-12.9-6.9-3.5-18.1-8.8-25-11.6-6.9-2.9-18.4-7.2-25.5-9.6-7.1-2.3-17.7-5.4-23.5-6.9-5.8-1.5-14.8-3.5-20-4.6-5.2-1.1-16.3-2.9-24.5-4-10.7-1.4-22.4-2.1-40.5-2.3-14-0.2-27.3-0.2-29.5 0z"/>
		<path id="Path 7" class="s2" d="m1488 1116.6c-3 0.2-11.8 1.1-19.5 2-7.7 0.8-20.8 2.8-29 4.5-8.3 1.6-21.1 4.7-28.5 6.8-7.4 2.2-19.1 5.9-26 8.4-6.9 2.5-18.6 7.3-26 10.7-7.4 3.3-18.5 8.9-24.5 12.2-6 3.4-15.3 8.8-20.5 12.1-5.2 3.3-14.5 9.6-20.5 14.1-6 4.5-15 11.6-20 15.8-5 4.2-15.2 13.8-22.7 21.5-7.6 7.6-17.7 18.6-22.5 24.4-4.8 5.8-12.2 15.5-16.5 21.5-4.2 6-10.6 15.7-14.2 21.7-3.6 5.9-10 17.5-14.1 25.7-4.1 8.3-9 18.7-10.9 23.3-1.9 4.5-5.4 14.1-7.9 21.2-2.4 7.2-5.6 17.3-7 22.5-1.5 5.2-4 16.3-5.6 24.5-1.7 8.3-3.8 21.5-4.8 29.5-1.2 10.4-1.7 22-1.7 41 0 19 0.5 30.6 1.7 41 1 8 3.1 21.3 4.8 29.5 1.6 8.3 4.3 19.7 5.9 25.5 1.6 5.8 4.5 15 6.3 20.5 1.9 5.5 5.5 15 7.9 21 2.5 6.1 7.1 16.2 10.3 22.5 3.1 6.3 8.9 17 12.8 23.8l7.2 12.2c272.1 0 291.9-0.2 301.8-1.6 6.1-0.8 16.2-2.8 22.2-4.4 6-1.5 15-4.4 20-6.3 5-1.9 14-5.9 20-9 6-3 15-8.2 20-11.4 5-3.3 11.9-8.3 15.5-11.3 3.6-2.9 9.8-8.5 13.8-12.4 4.1-3.9 10.2-10.5 13.7-14.6 3.4-4.1 9.3-12 13-17.5 3.8-5.5 9.9-16.3 13.6-24 3.7-7.7 8.2-18.3 9.9-23.5 1.7-5.2 4-13.1 5.1-17.5 1-4.4 2.5-12.7 3.4-18.5 1.2-9 1.5-34.8 1.5-179.7v-169.3c-14.7-7-23.4-10.7-28.8-12.9-5.3-2.1-14-5.3-19.2-7.1-5.2-1.7-14.2-4.4-20-6-5.8-1.6-17.3-4.3-25.5-5.9-8.3-1.7-21.1-3.7-28.5-4.6-7.4-0.9-24.1-1.8-37-1.9-12.9-0.2-26-0.2-29 0z"/>
		<path id="Path 8" class="s3" d="m1248.7 1830.7c-0.3 0.5 9.2 25.3 21 55.3 11.7 30 25.2 64.3 29.8 76.2l8.5 21.8h31c14.7-37.6 28.1-71.9 39.4-100.5 11.2-28.6 20.2-52.3 20-52.8-0.2-0.4-6.5-0.7-13.9-0.7-12 0-13.6 0.2-14.1 1.7-0.3 1-10.7 29.5-23.1 63.3-12.3 33.8-22.8 61.8-23.1 62.2-0.4 0.4-11.3-27.9-24.2-63l-23.5-63.7c-21.2-0.4-27.6-0.2-27.8 0.2z"/>
		<path id="Path 9" class="s3" d="m660 1907v77h26v-154h-26z"/>
		<path id="Path 10" class="s3" d="m973.5 1827.9c-2.8 0.5-7 1.4-9.5 2.1-2.5 0.6-7.4 2.7-11 4.6-3.6 1.9-7.9 4.7-9.5 6.2-1.6 1.5-4.5 4.5-6.3 6.5l-3.2 3.7v-21h-26v154h26c0.6-89.8 0.9-97.3 2.3-102.3 0.9-3.1 2.8-7.8 4.1-10.5 1.3-2.6 4.3-6.7 6.7-9.1 2.4-2.4 7.1-5.7 10.4-7.2 3.3-1.6 9.1-3.3 13-3.9 5.2-0.9 9-0.9 14.5 0 4.1 0.6 9.9 2.2 12.8 3.5 2.8 1.4 7.4 4.6 10 7.2 2.6 2.7 6 7.3 7.4 10.3 1.4 3 3.1 7.9 3.7 10.7 0.7 3.5 1.1 21.8 1.1 53.3v48h26c0-95-0.2-104.1-1.6-110.3-0.9-3.9-3.2-10.6-5.2-14.7-2.5-5.4-5.4-9.3-10.1-14-4-4-9.4-8-13.6-10.2-3.9-2-9.9-4.4-13.5-5.2-3.6-0.9-10.3-1.8-15-2-4.7-0.3-10.8-0.1-13.5 0.3z"/>
		<path id="Path 11" class="s3" d="m793.5 1828.1c-3.3 0.5-7.6 1.4-9.5 2-1.9 0.7-5.8 2.3-8.5 3.7-2.8 1.3-7.2 4.1-9.8 6.1-2.7 2-6.2 5.4-7.8 7.6l-2.9 4v-21.5h-26v154h26c0.6-88.1 1-98.5 2.2-102.5 0.8-2.7 2.5-7.2 3.9-10 1.3-2.7 4.3-6.9 6.7-9.2 2.3-2.4 7-5.6 10.4-7.3 3.5-1.6 9.4-3.5 13.3-4.1 5.3-0.8 8.9-0.8 14.5 0 4.1 0.7 9.5 2.1 12 3.2 2.5 1.1 6.3 3.5 8.4 5.2 2.2 1.8 5.1 5 6.6 7.2 1.5 2.2 3.8 6.7 5.1 10l2.4 6 0.5 101.5h26l-0.5-108.5c-4.2-12.4-7.3-18.9-9.7-22.4-2.4-3.6-6.6-8.4-9.3-10.8-2.8-2.4-8.6-6.2-13-8.3-4.4-2.1-10.4-4.3-13.3-4.9-2.8-0.6-8.9-1.3-13.4-1.5-4.6-0.3-11-0.1-14.3 0.5z"/>
		<path id="Path 12" class="s3" d="m436.5 1827.9c-2.8 0.5-7.5 1.5-10.5 2.4-3 0.9-8.2 3.2-11.5 5.2-3.3 1.9-8.4 6.1-11.3 9.3l-5.3 5.7 0.1-20.5h-26v154h26c0-83.6 0.3-93.9 1.5-99.5 0.9-3.9 2.7-9.4 4-12.3 1.4-2.8 4.6-7.4 7.3-10 2.6-2.6 7.2-6 10.2-7.5 3-1.4 8.6-3.1 12.5-3.7 5-0.8 9-0.9 14.3-0.1 3.9 0.6 9.5 2.2 12.2 3.6 2.8 1.4 6.9 4.2 9.3 6.4 2.3 2.1 5.4 6 6.9 8.7 1.5 2.7 3.4 7.6 4.2 10.9 1.4 5.1 1.6 13.7 1.6 54.7v48.8h27c0-78.3 0.4-96.8 1.1-100.3 0.6-2.8 2.4-7.9 3.9-11.2 1.7-3.7 4.8-7.9 7.9-10.8 2.8-2.6 7.5-5.8 10.3-7.2 2.9-1.3 8.4-2.9 12.3-3.6 5.2-0.8 8.8-0.8 14 0 3.9 0.6 9.4 2.2 12.2 3.6 2.9 1.4 7.4 4.6 9.9 7.2 2.6 2.7 5.8 7 7.1 9.8 1.4 2.7 3.2 7.9 3.9 11.5 1 4.9 1.4 17.8 1.4 53.7v47.3h26c-0.6-106.8-0.6-107.6-2.9-114.5-1.2-3.9-3.9-9.9-5.9-13.5-2-3.6-6.1-9-9.2-12-3.5-3.5-8.3-7-13-9.3-4.1-2-10.4-4.4-14-5.4q-6.5-1.7-18-1.6c-9.9 0-12.6 0.4-19.5 2.7-4.4 1.5-10.5 4.2-13.5 6.1-3 1.8-7.9 5.9-10.9 9.1-2.9 3.3-6.3 7.9-7.5 10.2l-2.1 4.4c-5.6-9.1-9.9-14.2-13.2-17.2-3.2-3-8.8-6.9-12.3-8.7-3.6-1.7-9.2-3.8-12.5-4.7-3.3-0.8-9.8-1.7-14.5-2-4.7-0.3-10.8-0.1-13.5 0.3z"/>
		<path id="Path 13" class="s3" d="m669 1771.1c-1.9 0.4-4.6 1.7-6 2.7-1.4 1-3.5 3.6-4.7 5.8-1.4 2.3-2.3 5.6-2.3 8.2 0 2.3 0.6 5.7 1.3 7.5 0.8 1.7 3 4.7 5 6.5 2.1 1.8 5.3 3.5 7.5 3.8 2 0.4 5.3 0.4 7.2 0 1.9-0.3 4.5-1.3 5.8-2.1 1.2-0.8 3.3-3 4.7-4.7 1.4-2 2.7-5.4 3.1-8.3 0.6-4.1 0.3-5.9-1.7-9.9-1.5-3-3.8-5.8-5.9-7.2-1.9-1.2-5.1-2.4-7-2.7-1.9-0.3-5.1-0.1-7 0.4z"/>
		<path id="Path 14" class="s3" d="m148 1771.1c-2.5 0.5-7.2 1.8-10.5 2.9-3.3 1.1-8.3 3.7-11 5.8-2.8 2.1-6.5 6-8.3 8.7-1.8 2.8-4 7.3-4.9 10-1 3.1-1.7 10-1.9 18.3l-0.4 13.2h-20v22h20v132h26v-132h32v-22h-32c0-12.4 0.5-18.4 1.1-21.2 0.9-4 2.2-6.3 5.3-9.4 2.8-2.9 5.8-4.7 9.6-5.8 3-0.9 7.4-1.6 9.8-1.6h4.2v-22c-11.2 0.2-16.5 0.6-19 1.1z"/>
		<path id="Path 15" class="s2" d="m752.1 1510.5c-0.1 1.7-0.4 5.7-0.7 9-0.3 3.3-1.2 12.5-2 20.5-0.8 8-2.8 22.4-4.5 32-1.6 9.6-5.1 26.5-7.9 37.5-2.7 11-7.4 27.4-10.3 36.5-3 9.1-6.6 19.5-8.1 23.3l-2.6 6.7h62c-2.4-7.4-5.1-18.5-7.5-29.5-2.4-11-5.8-28.1-7.4-38-1.7-9.9-4-25.4-5.1-34.5-1.1-9.1-2.7-26-3.5-37.5-0.8-11.5-1.6-22.8-1.8-25-0.3-3.1-0.4-3.3-0.6-1z"/>
		<path id="Path 16" fill-rule="evenodd" class="s3" d="m266.5 1828.4c10.2 0.2 16.9 0.9 21 2 3.3 1 9.1 3.3 13 5.3 3.9 1.9 9.3 5.3 12 7.5 2.8 2.1 7.1 6.5 9.8 9.6 2.6 3.1 6.5 9.3 8.6 13.7 2.2 4.4 4.6 10.9 5.5 14.5 0.9 3.6 1.9 10.1 2.2 14.5 0.4 4.4 0.4 11-0.6 21.5h-123l0.6 3.7c0.3 2.1 1.4 6.7 2.4 10.3 1.1 3.6 3.3 8.7 5.1 11.5 1.7 2.7 4.1 6.1 5.3 7.4 1.1 1.3 4.8 4.1 8.1 6.3 3.3 2.1 8.9 4.8 12.5 5.9 4.4 1.4 9.4 2.1 15.5 2.1 5.6 0 11.2-0.6 15-1.7 3.3-0.9 8-2.9 10.4-4.4 2.5-1.4 6.5-4.9 9-7.6 2.5-2.8 5.5-7.2 8.6-14.5l14 0.2c13.4 0.3 14 0.4 13.7 2.3-0.2 1.1-1.9 5.4-3.8 9.5-2 4.1-5.7 10.2-8.4 13.5-2.6 3.3-7.2 7.8-10.1 10.1-3 2.2-7 5-8.9 6.1-1.9 1.2-6.6 3.2-10.5 4.6-3.9 1.4-10.8 3.1-15.5 3.7-5.2 0.8-12.4 1.1-18.5 0.7-5.5-0.3-13.3-1.5-17.3-2.7-3.9-1.1-9.6-3.2-12.4-4.6-2.9-1.5-8.2-4.7-11.8-7.3-3.5-2.5-8.8-7.5-11.8-11.1-2.9-3.6-7.1-10.1-9.2-14.5-2.1-4.4-4.6-10.7-5.4-14-0.9-3.3-2-10.4-2.6-15.8-0.7-6.6-0.7-12.8 0-19.5 0.6-5.3 1.7-12.4 2.6-15.7 0.8-3.3 3.3-9.6 5.4-14 2.1-4.4 5.9-10.6 8.4-13.8 2.6-3.1 7.2-7.7 10.4-10.2 3.1-2.5 8.9-6.1 12.7-8 3.8-1.9 10.6-4.3 15-5.4 6.7-1.7 10.5-2 23-1.7zm-24.2 26.6c-3.5 1.7-8.7 5.2-11.5 7.9-2.9 2.7-6.7 7.5-8.5 10.7-1.7 3.3-3.9 8.6-4.7 11.9-0.9 3.3-1.6 7-1.6 8.2v2.3h96c-0.9-7.4-1.6-11.3-2.2-13.5-0.6-2.2-1.9-5.8-3-8-1.1-2.2-3.7-6-5.7-8.4-2-2.4-5.4-5.7-7.6-7.2-2.2-1.5-7.1-3.9-11-5.4-5.2-2-9.3-2.8-16-3-4.9-0.2-11 0-13.5 0.5-2.5 0.6-7.3 2.4-10.7 4z"/>
		<path id="Path 17" fill-rule="evenodd" class="s3" d="m1155 1828.1c9.3-0.1 14.7 0.4 21 2 4.7 1.1 11.7 3.5 15.5 5.4 3.8 1.8 9.9 5.6 13.5 8.3 3.6 2.8 8.6 7.6 11.1 10.9 2.5 3.2 6 8.3 7.7 11.3 1.7 3 4.2 8.9 5.6 13 1.3 4.1 3 12 3.6 17.5 0.6 5.5 0.9 13.1 0.5 17-0.4 3.8-1.4 10.2-2.2 14-0.8 3.8-2.7 9.7-4 13-1.4 3.3-4.3 8.7-6.3 12-2.1 3.3-7.3 9.4-11.7 13.5-6 5.7-10.1 8.6-17.3 12.2-5.2 2.5-12.7 5.4-16.5 6.4-5.1 1.3-10.8 1.8-21 1.8-11.6 0-15.4-0.3-22-2.2-4.4-1.3-11.6-4.2-16-6.5-6-3-10.1-6.2-16.5-12.6-6.3-6.3-9.6-10.7-12.7-16.6-2.3-4.4-5.2-11.6-6.5-16-2-7-2.3-10.2-2.3-25 0-13 0.4-18.5 1.8-23.5 0.9-3.6 3.8-10.8 6.4-16 3.8-7.8 6.2-11 13.2-18.1 7.1-7.2 10.2-9.4 18.1-13.3 5.2-2.6 12.9-5.6 17-6.6 5.2-1.3 11.4-1.9 20-1.9zm-24.3 28.6c-2.8 1.4-7.7 5.1-10.8 8.2-3.2 3.3-6.9 8.3-8.7 12.1-1.7 3.6-3.8 9.2-4.7 12.5-0.9 3.7-1.5 10.5-1.5 17.5 0 8.3 0.5 13.7 2 19.5 1.2 4.4 3.3 10 4.7 12.5 1.4 2.5 4.2 6.5 6.2 8.9 2 2.3 5.8 5.8 8.6 7.6 2.7 1.8 7.7 4.2 11 5.3 3.3 1.1 8.7 2.3 12 2.7 3.3 0.3 9.2 0.1 13-0.5 4.4-0.6 10-2.5 15-5 4.4-2.1 9.9-5.7 12.3-7.9 2.3-2.3 5.8-6.5 7.7-9.3 1.9-2.9 4.4-7.9 5.5-11 1.1-3.2 2.5-9.3 3.1-13.5 0.6-4.3 0.8-10.9 0.4-14.8-0.3-3.8-1.3-9.7-2.1-13-0.9-3.3-3-8.7-4.7-12-1.8-3.3-5.7-8.5-8.7-11.5-3.2-3.2-8.3-6.8-12-8.7-3.6-1.7-8.5-3.6-11-4.2-2.5-0.6-8.3-1-13-1-4.7 0-10.9 0.7-13.8 1.5-2.8 0.8-7.6 2.6-10.5 4.1z"/>
		<path id="Path 18" fill-rule="evenodd" class="s3" d="m1489.5 1828.3c12.2 0.3 14.9 0.7 21.5 3 4.1 1.5 9.9 4.2 12.9 6 2.9 1.7 7.7 5.5 10.6 8.2 2.8 2.8 6.2 6.6 9.5 12v-27.5h26v154h-26v-27l-4.4 5.8c-2.5 3.1-6.9 7.6-9.8 9.8-2.9 2.3-8 5.5-11.3 7.2-3.3 1.7-8.9 3.9-12.5 4.9-4.8 1.3-9.9 1.8-20 1.7-12 0-14.4-0.3-21.5-2.8-4.4-1.5-11.2-4.6-15-6.9-3.8-2.2-9.9-7.1-13.5-10.7-3.6-3.7-8-9.1-9.7-12.1-1.8-3-4.4-8.1-5.7-11.4-1.4-3.3-3.3-8.9-4.3-12.5-1.4-5.1-1.8-10.2-1.8-23.5 0-14.8 0.3-18 2.3-25 1.3-4.4 4.1-11.4 6.3-15.5 2.1-4.1 5.9-10 8.2-13 2.4-3 7.3-7.7 10.8-10.4 3.5-2.7 9.8-6.5 13.9-8.4 4.1-1.9 10.2-4.1 13.5-4.8 3.9-0.9 10.9-1.2 20-1.1zm-23.4 29.3c-2.9 1.6-7.8 5.5-10.7 8.7-3.2 3.3-6.8 8.7-8.8 13-1.9 3.9-3.9 9.6-4.5 12.5-0.6 2.8-1.1 9.6-1.1 15 0 6.6 0.6 12.3 2 17.7 1.2 4.4 3.3 10.2 4.8 13 1.5 2.7 5.2 7.6 8.3 11 3.1 3.3 7.8 7.2 10.5 8.7 2.7 1.4 7.6 3.4 10.9 4.4 3.7 1.1 9.3 1.8 14.5 1.8 5.2 0 10.8-0.7 14.5-1.8 3.3-1 8.2-3 11-4.6 2.7-1.5 7.7-5.7 11-9.2 3.3-3.4 7.3-8.8 8.7-11.8 1.5-3 3.4-8.4 4.4-12 1.1-4.2 1.7-10.2 1.7-17 0-6.8-0.6-12.8-1.8-17-0.9-3.6-3-9-4.5-12-1.5-3-4.7-7.7-7.1-10.4-2.4-2.7-7.1-6.7-10.4-8.8-3.3-2.2-8.9-4.8-12.5-5.9-4.5-1.3-9.2-1.9-15.5-1.9-5.6 0.1-11.1 0.8-14.5 1.9-3 0.9-7.9 3-10.9 4.7z"/>
	</g>
</svg>