<svg width="77" height="79" viewBox="0 0 77 79" fill="none" xmlns="http://www.w3.org/2000/svg">
<path d="M34.7992 11.4297C36.4469 8.4755 37.2692 7 38.5009 7C39.7327 7 40.5549 8.4755 42.2027 11.4297L42.6252 12.1935C43.0964 13.0353 43.3304 13.4545 43.6944 13.7308C44.0584 14.007 44.5134 14.111 45.4234 14.3157L46.2489 14.5043C49.4469 15.2258 51.0459 15.5898 51.4262 16.8118C51.8064 18.0338 50.7177 19.311 48.5369 21.859L47.9714 22.5188C47.3539 23.2435 47.0452 23.6043 46.9054 24.0528C46.7657 24.5013 46.8112 24.9855 46.9054 25.9507L46.9899 26.8282C47.3214 30.231 47.4839 31.9308 46.4894 32.688C45.4949 33.4453 43.9967 32.753 41.0034 31.375L40.2267 31.0175C39.3784 30.6275 38.9527 30.4325 38.5009 30.4325C38.0492 30.4325 37.6234 30.6275 36.7752 31.0175L35.9984 31.375C33.0084 32.7563 31.5069 33.4453 30.5124 32.688C29.5179 31.9308 29.6804 30.231 30.0119 26.8315L30.0964 25.9507C30.1907 24.9855 30.2362 24.5013 30.0964 24.0528C29.9567 23.6043 29.6479 23.2403 29.0304 22.5188L28.4649 21.859C26.2874 19.311 25.1954 18.0338 25.5757 16.8118C25.9559 15.5898 27.5549 15.2258 30.7529 14.5043L31.5784 14.3157C32.4884 14.111 32.9434 14.007 33.3074 13.7308C33.6714 13.4545 33.9054 13.0353 34.3734 12.1935L34.7992 11.4297ZM62.6484 25.4665C63.4739 23.9878 63.8834 23.25 64.5009 23.25C65.1184 23.25 65.5279 23.9878 66.3534 25.4665L66.5647 25.8467C66.7987 26.2692 66.9157 26.4773 67.0977 26.617C67.2797 26.7535 67.5072 26.8055 67.9622 26.9095L68.3749 27.0005C69.9739 27.3645 70.7735 27.5433 70.962 28.1575C71.1537 28.7685 70.6077 29.4055 69.519 30.6795L69.2362 31.0078C68.9275 31.3718 68.7714 31.5537 68.7032 31.778C68.6317 31.999 68.6577 32.2428 68.7032 32.727L68.7454 33.1657C68.9079 34.8655 68.9924 35.717 68.4952 36.094C67.9979 36.471 67.2504 36.1265 65.7522 35.4375L65.3622 35.2587C64.9397 35.0637 64.7252 34.9662 64.5009 34.9662C64.2734 34.9662 64.0622 35.0637 63.6364 35.2587L63.2497 35.4375C61.7547 36.1265 61.0072 36.471 60.5067 36.094C60.0094 35.717 60.0907 34.8655 60.2564 33.1657L60.2987 32.727C60.3442 32.2395 60.3702 31.999 60.2987 31.778C60.2305 31.5505 60.0744 31.3718 59.7657 31.0078L59.4829 30.6795C58.3942 29.4055 57.8482 28.7685 58.0399 28.1575C58.2284 27.5433 59.028 27.3645 60.627 27.0005L61.0397 26.9095C61.4947 26.8055 61.7222 26.7535 61.9042 26.617C62.0862 26.4773 62.2032 26.266 62.4372 25.8467L62.6484 25.4665ZM10.6484 25.4665C11.4772 23.9878 11.8834 23.25 12.5009 23.25C13.1184 23.25 13.5279 23.9878 14.3534 25.4665L14.5647 25.8467C14.7987 26.2692 14.9157 26.4773 15.0977 26.617C15.2797 26.7535 15.5072 26.8055 15.9622 26.9095L16.3749 27.0005C17.9739 27.3645 18.7734 27.5433 18.9652 28.1575C19.1537 28.7685 18.6077 29.4055 17.5189 30.6795L17.2362 31.0078C16.9274 31.3718 16.7714 31.5537 16.7032 31.778C16.6317 31.999 16.6577 32.2428 16.7032 32.727L16.7454 33.1657C16.9079 34.8655 16.9924 35.717 16.4952 36.094C15.9979 36.471 15.2472 36.1265 13.7522 35.4375L13.3622 35.2587C12.9397 35.0637 12.7252 34.9662 12.5009 34.9662C12.2734 34.9662 12.0622 35.0637 11.6364 35.2587L11.2497 35.4375C9.7547 36.1265 9.0072 36.471 8.5067 36.094C8.00945 35.717 8.0907 34.8655 8.25645 33.1657L8.2987 32.727C8.3442 32.2395 8.3702 31.999 8.2987 31.778C8.23045 31.5505 8.07445 31.3718 7.7657 31.0078L7.48295 30.6795C6.3942 29.4055 5.8482 28.7685 6.0367 28.1575C6.22845 27.5433 7.02795 27.3645 8.62695 27.0005L9.0397 26.9095C9.4947 26.8055 9.7222 26.7535 9.9042 26.617C10.0862 26.4773 10.2032 26.266 10.4372 25.8467L10.6484 25.4665Z" stroke="#AE60D6" stroke-width="5"/>
<path d="M15.75 66.7617H23.095C26.3775 66.7617 29.7023 67.1062 32.897 67.7627C38.6008 68.9344 44.4695 69.0644 50.2195 68.1462C53.0405 67.6912 55.8095 66.9924 58.3185 65.7834C60.5805 64.6882 63.3527 63.1509 65.215 61.4252C67.074 59.7027 69.011 56.8849 70.3825 54.6814C71.5655 52.7899 70.9935 50.4727 69.128 49.0654C68.0797 48.3029 66.8168 47.8922 65.5205 47.8922C64.2242 47.8922 62.9613 48.3029 61.913 49.0654L56.0402 53.5017C53.7652 55.2242 51.279 56.8069 48.3182 57.2782C47.9607 57.3334 47.587 57.3854 47.197 57.4309M47.197 57.4309C47.0779 57.4447 46.9588 57.4577 46.8395 57.4699M47.197 57.4309C47.7172 57.2902 48.1941 57.0222 48.5847 56.6509C49.0745 56.2272 49.4744 55.7098 49.7609 55.129C50.0474 54.5483 50.2147 53.916 50.2528 53.2696C50.291 52.6231 50.1993 51.9756 49.9831 51.3652C49.767 50.7547 49.4307 50.1938 48.9943 49.7154C48.5707 49.2453 48.0775 48.843 47.5318 48.5227C38.4415 43.0984 24.2942 47.2292 15.75 53.2904M47.197 57.4309C47.0795 57.4565 46.9597 57.4696 46.8395 57.4699M46.8395 57.4699C44.8795 57.6669 42.9049 57.6713 40.944 57.4829" stroke="#AE60D6" stroke-width="5" stroke-linecap="round"/>
<path d="M15.75 50.875C15.75 48.1826 13.5674 46 10.875 46C8.18261 46 6 48.1826 6 50.875V67.125C6 69.8174 8.18261 72 10.875 72C13.5674 72 15.75 69.8174 15.75 67.125V50.875Z" stroke="#AE60D6" stroke-width="5"/>
</svg>
