<svg width="90" height="90" viewBox="0 0 90 90" fill="none" xmlns="http://www.w3.org/2000/svg">
<path d="M28.5104 37.5104C26.9163 39.1045 24.7543 40 22.5 40C20.2457 40 18.0837 39.1045 16.4896 37.5104C14.8955 35.9163 14 33.7543 14 31.5C14 29.2457 14.8955 27.0837 16.4896 25.4896C18.0837 23.8955 20.2457 23 22.5 23C24.7543 23 26.9163 23.8955 28.5104 25.4896C30.1045 27.0837 31 29.2457 31 31.5C31 33.7543 30.1045 35.9163 28.5104 37.5104ZM22.5 45.5C24.3385 45.5 26.159 45.1379 27.8576 44.4343C29.5561 43.7307 31.0995 42.6995 32.3995 41.3995C33.6995 40.0995 34.7307 38.5561 35.4343 36.8576C36.1379 35.159 36.5 33.3385 36.5 31.5C36.5 29.6615 36.1379 27.841 35.4343 26.1424C34.7307 24.4439 33.6995 22.9005 32.3995 21.6005C31.0995 20.3005 29.5561 19.2693 27.8576 18.5657C26.159 17.8621 24.3385 17.5 22.5 17.5C18.787 17.5 15.226 18.975 12.6005 21.6005C9.975 24.226 8.5 27.787 8.5 31.5C8.5 35.213 9.975 38.774 12.6005 41.3995C15.226 44.025 18.787 45.5 22.5 45.5Z" fill="#AE60D6" stroke="#AE60D6"/>
<path d="M70.054 42.2216L70.0539 42.2215C69.7978 41.9661 69.5946 41.6626 69.456 41.3285C69.3173 40.9944 69.246 40.6362 69.246 40.2745C69.246 39.9128 69.3173 39.5546 69.456 39.2205C69.5945 38.8866 69.7976 38.5833 70.0534 38.328C70.3088 38.0721 70.6121 37.8691 70.946 37.7305C71.2801 37.5919 71.6383 37.5205 72 37.5205C72.3617 37.5205 72.7199 37.5919 73.054 37.7305C73.3881 37.8691 73.6915 38.0723 73.947 38.3284L73.9471 38.3285L75.4631 39.849L75.4636 39.8495M70.054 42.2216L71.928 43.384C73.3776 44.8336 74.5274 46.5546 75.3119 48.4486C76.0963 50.3426 76.5001 52.3725 76.5 54.4225V64.1245C76.5 64.7213 76.7371 65.2936 77.159 65.7155C77.581 66.1375 78.1533 66.3745 78.75 66.3745C79.3467 66.3745 79.919 66.1375 80.341 65.7155C80.7629 65.2936 81 64.7213 81 64.1245V54.4225C80.9994 49.089 78.8806 43.9741 75.1095 40.2025L75.4636 39.8495M70.054 42.2216L71.5744 43.7376M70.054 42.2216L71.5744 43.7376M75.4636 39.8495C79.3281 43.7148 81.4993 48.9566 81.5 54.4225V64.1245C81.5 64.8539 81.2103 65.5534 80.6945 66.0691C80.1788 66.5848 79.4793 66.8745 78.75 66.8745C78.0207 66.8745 77.3212 66.5848 76.8055 66.0691C76.2897 65.5534 76 64.8539 76 64.1245V54.4225C76.0001 52.4382 75.6093 50.4732 74.8499 48.6399C74.0906 46.8066 72.9776 45.1408 71.5744 43.7376M75.4636 39.8495L71.5744 43.7376M17.696 43.5716L17.6961 43.5715C17.9522 43.3161 18.1554 43.0126 18.294 42.6785C18.4327 42.3444 18.504 41.9862 18.504 41.6245C18.504 41.2628 18.4327 40.9046 18.294 40.5705C18.1555 40.2366 17.9524 39.9333 17.6966 39.678C17.4412 39.4221 17.1379 39.2191 16.804 39.0805C16.4699 38.9419 16.1117 38.8705 15.75 38.8705C15.3883 38.8705 15.0301 38.9419 14.696 39.0805C14.3619 39.2191 14.0585 39.4223 13.803 39.6784L13.8029 39.6785L12.2869 41.199C12.2869 41.1991 12.2868 41.1991 12.2867 41.1992C8.42205 45.0645 6.25065 50.3065 6.25 55.7725V55.7725V64.1245C6.25 64.8539 6.53973 65.5534 7.05546 66.0691C7.57118 66.5848 8.27065 66.8745 9 66.8745C9.72935 66.8745 10.4288 66.5848 10.9445 66.0691C11.4603 65.5534 11.75 64.8539 11.75 64.1245V55.7726C11.75 55.7726 11.75 55.7725 11.75 55.7725C11.7504 51.7651 13.3422 47.9219 16.1754 45.0878C16.1755 45.0877 16.1755 45.0876 16.1756 45.0875L17.696 43.5716Z" fill="#AE60D6" stroke="#AE60D6"/>
<path d="M63 40C60.7457 40 58.5837 39.1045 56.9896 37.5104C55.3955 35.9163 54.5 33.7543 54.5 31.5C54.5 29.2457 55.3955 27.0837 56.9896 25.4896C58.5837 23.8955 60.7457 23 63 23C65.2543 23 67.4163 23.8955 69.0104 25.4896C70.6045 27.0837 71.5 29.2457 71.5 31.5C71.5 33.7543 70.6045 35.9163 69.0104 37.5104C67.4163 39.1045 65.2543 40 63 40ZM57.6424 44.4343C59.341 45.1379 61.1615 45.5 63 45.5C66.713 45.5 70.274 44.025 72.8995 41.3995C75.525 38.774 77 35.213 77 31.5C77 27.787 75.525 24.226 72.8995 21.6005C70.274 18.975 66.713 17.5 63 17.5C61.1615 17.5 59.341 17.8621 57.6424 18.5657C55.9439 19.2693 54.4005 20.3005 53.1005 21.6005C51.8005 22.9005 50.7693 24.4439 50.0657 26.1424C49.3621 27.841 49 29.6615 49 31.5C49 33.3385 49.3621 35.159 50.0657 36.8576C50.7693 38.5561 51.8005 40.0995 53.1005 41.3995C54.4005 42.6995 55.9439 43.7307 57.6424 44.4343ZM35.1486 63.2736C37.1646 61.2576 39.8989 60.125 42.75 60.125C44.1617 60.125 45.5596 60.4031 46.8638 60.9433C48.1681 61.4835 49.3532 62.2754 50.3514 63.2736C51.3496 64.2718 52.1415 65.4569 52.6817 66.7612C53.2219 68.0654 53.5 69.4633 53.5 70.875V76.725C53.5 77.4543 53.7897 78.1538 54.3055 78.6695C54.8212 79.1853 55.5207 79.475 56.25 79.475C56.9793 79.475 57.6788 79.1853 58.1945 78.6695C58.7103 78.1538 59 77.4543 59 76.725V70.875C59 66.5652 57.288 62.432 54.2405 59.3845C51.193 56.337 47.0598 54.625 42.75 54.625C38.4402 54.625 34.307 56.337 31.2595 59.3845C28.212 62.432 26.5 66.5652 26.5 70.875V76.725C26.5 77.4543 26.7897 78.1538 27.3055 78.6695C27.8212 79.1853 28.5207 79.475 29.25 79.475C29.9793 79.475 30.6788 79.1853 31.1945 78.6695C31.7103 78.1538 32 77.4543 32 76.725V70.875C32 68.0239 33.1326 65.2896 35.1486 63.2736Z" fill="#AE60D6" stroke="#AE60D6"/>
<path d="M48.7604 49.8854C47.1663 51.4795 45.0043 52.375 42.75 52.375C40.4957 52.375 38.3337 51.4795 36.7396 49.8854C35.1455 48.2913 34.25 46.1293 34.25 43.875C34.25 41.6207 35.1455 39.4587 36.7396 37.8646C38.3337 36.2705 40.4957 35.375 42.75 35.375C45.0043 35.375 47.1663 36.2705 48.7604 37.8646C50.3545 39.4587 51.25 41.6207 51.25 43.875C51.25 46.1293 50.3545 48.2913 48.7604 49.8854ZM42.75 57.875C46.463 57.875 50.024 56.4 52.6495 53.7745C55.275 51.149 56.75 47.588 56.75 43.875C56.75 40.162 55.275 36.601 52.6495 33.9755C50.024 31.35 46.463 29.875 42.75 29.875C39.037 29.875 35.476 31.35 32.8505 33.9755C30.225 36.601 28.75 40.162 28.75 43.875C28.75 47.588 30.225 51.149 32.8505 53.7745C35.476 56.4 39.037 57.875 42.75 57.875Z" fill="#AE60D6" stroke="#AE60D6"/>
</svg>
