<svg width="80" height="80" viewBox="0 0 80 80" fill="none" xmlns="http://www.w3.org/2000/svg">
<path fill-rule="evenodd" clip-rule="evenodd" d="M24 24C24 28.2435 25.6857 32.3131 28.6863 35.3137C31.6869 38.3143 35.7565 40 40 40C44.2435 40 48.3131 38.3143 51.3137 35.3137C54.3143 32.3131 56 28.2435 56 24C56 19.7565 54.3143 15.6869 51.3137 12.6863C48.3131 9.68571 44.2435 8 40 8C35.7565 8 31.6869 9.68571 28.6863 12.6863C25.6857 15.6869 24 19.7565 24 24ZM48 24C48 26.1217 47.1571 28.1566 45.6569 29.6569C44.1566 31.1571 42.1217 32 40 32C37.8783 32 35.8434 31.1571 34.3431 29.6569C32.8429 28.1566 32 26.1217 32 24C32 21.8783 32.8429 19.8434 34.3431 18.3431C35.8434 16.8429 37.8783 16 40 16C42.1217 16 44.1566 16.8429 45.6569 18.3431C47.1571 19.8434 48 21.8783 48 24Z" fill="#AE60D6"/>
<path d="M68 72C68 73.0609 67.5786 74.0783 66.8284 74.8284C66.0783 75.5786 65.0609 76 64 76C62.9391 76 61.9217 75.5786 61.1716 74.8284C60.4214 74.0783 60 73.0609 60 72V62C60 52.024 51.176 44 40.064 44C28.92 44 20 52.052 20 62L20.008 72C20.008 73.0609 19.5866 74.0783 18.8364 74.8284C18.0863 75.5786 17.0689 76 16.008 76C14.9471 76 13.9297 75.5786 13.1796 74.8284C12.4294 74.0783 12.008 73.0609 12.008 72L12 62C12 47.44 24.676 36 40.064 36C55.44 36 68 47.428 68 62V72Z" fill="#AE60D6"/>
</svg>
