<svg width="77" height="56" viewBox="0 0 77 56" fill="none" xmlns="http://www.w3.org/2000/svg">
<path d="M9.62589 18.1564C9.62554 15.292 10.3192 12.4725 11.6444 9.95138C12.9696 7.43026 14.8849 5.28664 17.2179 3.71332C19.5509 2.14 22.2285 1.18633 25.0098 0.938077C27.7912 0.689826 30.5891 1.15478 33.1518 2.29113C35.7146 3.42747 37.9619 5.19957 39.6915 7.44802C41.4212 9.69648 42.5789 12.3508 43.0607 15.1722C43.5425 17.9936 43.3331 20.8936 42.4515 23.6114C41.5699 26.3293 40.0436 28.7796 38.01 30.7421C41.8446 32.6512 45.174 35.4809 47.7158 38.9912C50.2576 42.5015 51.9368 46.589 52.6111 50.9069C52.6854 51.3873 52.6667 51.8781 52.5561 52.3511C52.4455 52.8242 52.2451 53.2703 51.9665 53.6639C51.6879 54.0575 51.3364 54.3909 50.9322 54.6452C50.5279 54.8994 50.0788 55.0695 49.6105 55.1457C49.1422 55.2219 48.6639 55.2027 48.2028 55.0892C47.7418 54.9757 47.307 54.7702 46.9233 54.4843C46.5397 54.1985 46.2147 53.8379 45.9669 53.4231C45.719 53.0084 45.5533 52.5476 45.479 52.0672C44.7572 47.4274 42.4468 43.2037 38.9627 40.1544C35.4787 37.1052 31.0492 35.4302 26.4696 35.4302C21.8901 35.4302 17.4606 37.1052 13.9765 40.1544C10.4925 43.2037 8.18208 47.4274 7.46026 52.0672C7.38569 52.5476 7.2196 53.0083 6.97149 53.4229C6.72338 53.8376 6.39811 54.198 6.01424 54.4836C5.63037 54.7692 5.19542 54.9745 4.73422 55.0877C4.27303 55.2009 3.79462 55.2197 3.32632 55.1432C2.85802 55.0667 2.40899 54.8963 2.00488 54.6418C1.60076 54.3872 1.24947 54.0535 0.971063 53.6597C0.692655 53.2658 0.492583 52.8196 0.38227 52.3464C0.271956 51.8732 0.253561 51.3824 0.328136 50.9019C1.0035 46.5856 2.68325 42.5001 5.22501 38.9915C7.76676 35.483 11.0956 32.6549 14.9293 30.7471C13.2529 29.1321 11.9174 27.1815 11.0052 25.0159C10.093 22.8503 9.62352 20.5156 9.62589 18.1564ZM52.9384 10.7502C55.7345 10.7522 58.4699 11.5869 60.8126 13.153C63.1553 14.7191 65.0046 16.9493 66.1358 19.5727C67.2671 22.1962 67.6317 25.1002 67.1855 27.9322C66.7393 30.7642 65.5014 33.4024 63.6221 35.5266C66.5514 37.0186 69.1542 39.1064 71.2722 41.6631C73.3901 44.2198 74.979 47.1918 75.9421 50.3983C76.1329 51.0208 76.1597 51.6839 76.0199 52.3205C75.8801 52.9571 75.5787 53.5443 75.1461 54.0227C74.7136 54.5011 74.1654 54.8535 73.5572 55.0442C72.949 55.235 72.3024 55.2572 71.6831 55.1087C71.0643 54.9608 70.4944 54.6484 70.0306 54.2029C69.5668 53.7574 69.2255 53.1945 69.041 52.5708C68.1785 49.7081 66.6067 47.124 64.4793 45.0712C62.3519 43.0183 59.7417 41.567 56.9039 40.859C56.1158 40.6639 55.4147 40.2021 54.9136 39.5483C54.4125 38.8944 54.1405 38.0865 54.1415 37.2547V35.5167C54.1411 34.8272 54.3283 34.1514 54.682 33.5652C55.0357 32.979 55.5418 32.5057 56.1435 32.1987C57.6025 31.4568 58.7741 30.2307 59.4682 28.7195C60.1622 27.2082 60.3379 25.5006 59.9666 23.874C59.5953 22.2474 58.6989 20.7973 57.4231 19.7594C56.1472 18.7214 54.5667 18.1565 52.9384 18.1564C51.9811 18.1564 51.0631 17.7663 50.3862 17.0718C49.7093 16.3773 49.329 15.4354 49.329 14.4533C49.329 13.4712 49.7093 12.5293 50.3862 11.8348C51.0631 11.1403 51.9811 10.7502 52.9384 10.7502ZM26.4696 8.28143C25.1879 8.25169 23.9132 8.48498 22.7206 8.9676C21.5279 9.45022 20.4412 10.1724 19.5244 11.0919C18.6075 12.0113 17.8789 13.1094 17.3814 14.3217C16.8838 15.534 16.6274 16.836 16.627 18.1514C16.6267 19.4668 16.8825 20.769 17.3795 21.9816C17.8764 23.1941 18.6045 24.2926 19.5209 25.2125C20.4373 26.1324 21.5237 26.8552 22.7161 27.3384C23.9085 27.8216 25.1831 28.0556 26.4648 28.0265C28.9797 27.9694 31.3728 26.9046 33.1319 25.0598C34.8911 23.2151 35.8764 20.7372 35.877 18.1564C35.8777 15.5756 34.8935 13.0971 33.1353 11.2515C31.377 9.40587 28.9844 8.33977 26.4696 8.28143Z" fill="#AE60D6"/>
</svg>
