<svg
              width="57"
              height="40"
              viewBox="0 0 57 40"
              fill="none"
              xmlns="http://www.w3.org/2000/svg"
            >
              <path
                d="M7.125 12.5933C7.12474 10.5266 7.63821 8.49227 8.61922 6.67324C9.60022 4.8542 11.018 3.30754 12.745 2.17236C14.4721 1.03718 16.4542 0.349085 18.5131 0.169967C20.572 -0.00915065 22.6432 0.326325 24.5403 1.14622C26.4374 1.96611 28.101 3.24471 29.3814 4.86702C30.6618 6.48932 31.5188 8.40445 31.8754 10.4402C32.2321 12.4759 32.0771 14.5683 31.4245 16.5292C30.7719 18.4902 29.642 20.2582 28.1366 21.6741C30.9752 23.0516 33.4398 25.0933 35.3214 27.626C37.203 30.1588 38.4461 33.1079 38.9452 36.2234C39.0002 36.5701 38.9864 36.9242 38.9045 37.2655C38.8226 37.6068 38.6743 37.9286 38.4681 38.2126C38.2618 38.4966 38.0016 38.7372 37.7024 38.9207C37.4031 39.1041 37.0707 39.2268 36.724 39.2818C36.3774 39.3368 36.0233 39.3229 35.6819 39.241C35.3406 39.1592 35.0188 39.0109 34.7348 38.8046C34.4508 38.5984 34.2102 38.3382 34.0268 38.0389C33.8433 37.7397 33.7206 37.4072 33.6656 37.0606C33.1313 33.7129 31.421 30.6654 28.8419 28.4653C26.2628 26.2652 22.9838 25.0567 19.5937 25.0567C16.2037 25.0567 12.9247 26.2652 10.3456 28.4653C7.76649 30.6654 6.0562 33.7129 5.52187 37.0606C5.46667 37.4072 5.34372 37.7396 5.16006 38.0388C4.97639 38.3379 4.7356 38.598 4.45144 38.8041C4.16727 39.0102 3.8453 39.1583 3.5039 39.2399C3.16249 39.3216 2.80835 39.3352 2.46168 39.28C2.11502 39.2248 1.78262 39.1019 1.48347 38.9182C1.18432 38.7345 0.924273 38.4938 0.718179 38.2096C0.512085 37.9254 0.36398 37.6035 0.282319 37.262C0.200658 36.9206 0.187042 36.5665 0.242246 36.2198C0.742189 33.1056 1.98564 30.1577 3.8672 27.6262C5.74876 25.0948 8.21295 23.0543 11.0509 21.6777C9.80995 20.5125 8.82128 19.1051 8.14602 17.5426C7.47075 15.98 7.12324 14.2956 7.125 12.5933ZM39.1875 7.24958C41.2574 7.25103 43.2823 7.85329 45.0165 8.98327C46.7507 10.1132 48.1196 11.7223 48.957 13.6152C49.7945 15.5081 50.0644 17.6034 49.7341 19.6467C49.4038 21.6901 48.4874 23.5936 47.0962 25.1262C49.2647 26.2027 51.1914 27.7092 52.7593 29.5538C54.3271 31.3985 55.5033 33.5429 56.2162 35.8565C56.3575 36.3056 56.3773 36.7841 56.2738 37.2434C56.1704 37.7026 55.9472 38.1264 55.627 38.4715C55.3068 38.8167 54.901 39.071 54.4507 39.2086C54.0005 39.3462 53.5219 39.3623 53.0634 39.2551C52.6054 39.1484 52.1835 38.923 51.8402 38.6016C51.4969 38.2801 51.2442 37.874 51.1076 37.424C50.4691 35.3585 49.3056 33.494 47.7308 32.0128C46.156 30.5317 44.2237 29.4845 42.123 28.9737C41.5396 28.8329 41.0206 28.4997 40.6497 28.028C40.2787 27.5562 40.0774 26.9732 40.0781 26.3731V25.1191C40.0778 24.6216 40.2164 24.134 40.4782 23.711C40.74 23.2881 41.1147 22.9466 41.5601 22.7251C42.6401 22.1898 43.5075 21.3052 44.0212 20.2148C44.535 19.1244 44.665 17.8923 44.3902 16.7187C44.1154 15.545 43.4518 14.4988 42.5073 13.7499C41.5628 13.001 40.3929 12.5934 39.1875 12.5933C38.4789 12.5933 37.7993 12.3118 37.2982 11.8108C36.7971 11.3097 36.5156 10.6301 36.5156 9.92146C36.5156 9.21283 36.7971 8.53323 37.2982 8.03216C37.7993 7.53108 38.4789 7.24958 39.1875 7.24958ZM19.5937 5.46833C18.6449 5.44688 17.7014 5.6152 16.8185 5.96342C15.9356 6.31164 15.1312 6.83274 14.4524 7.49612C13.7737 8.1595 13.2344 8.9518 12.8661 9.8265C12.4977 10.7012 12.3079 11.6407 12.3077 12.5897C12.3074 13.5388 12.4968 14.4784 12.8647 15.3532C13.2325 16.2281 13.7715 17.0207 14.4499 17.6844C15.1283 18.3481 15.9324 18.8696 16.8152 19.2183C17.6979 19.567 18.6413 19.7358 19.5902 19.7148C21.4518 19.6736 23.2233 18.9053 24.5256 17.5743C25.8278 16.2433 26.5572 14.4554 26.5577 12.5933C26.5581 10.7312 25.8296 8.94294 24.5281 7.61129C23.2265 6.27964 21.4554 5.51043 19.5937 5.46833Z"
                fill="#9747FF"
              />
            </svg>