<svg width="80" height="80" viewBox="0 0 80 80" fill="none" xmlns="http://www.w3.org/2000/svg">
<path d="M26.6667 13.3337C26.6667 15.1018 25.9643 16.7975 24.714 18.0477C23.4638 19.2979 21.7681 20.0003 20 20.0003C18.2319 20.0003 16.5362 19.2979 15.286 18.0477C14.0357 16.7975 13.3333 15.1018 13.3333 13.3337C13.3333 11.5655 14.0357 9.86986 15.286 8.61961C16.5362 7.36937 18.2319 6.66699 20 6.66699C21.7681 6.66699 23.4638 7.36937 24.714 8.61961C25.9643 9.86986 26.6667 11.5655 26.6667 13.3337ZM16.6667 53.3337V73.3337H10V33.3337C9.99969 31.3618 10.5823 29.4339 11.6747 27.7923C12.767 26.1507 14.3203 24.8687 16.1392 24.1074C17.9582 23.3462 19.9616 23.1396 21.8976 23.5138C23.8335 23.8879 25.6157 24.8261 27.02 26.2103L34.9333 33.687L42.6433 25.977L47.3567 30.6903L35.0667 42.9803L30 38.2003V73.3337H23.3333V53.3337H16.6667ZM33.3333 16.667H63.3333V46.667H33.3333V53.3337H47.8833L57.2967 73.3337H64.6633L55.2533 53.3337H66.6667C67.5507 53.3337 68.3986 52.9825 69.0237 52.3573C69.6488 51.7322 70 50.8844 70 50.0003V13.3337C70 12.4496 69.6488 11.6018 69.0237 10.9766C68.3986 10.3515 67.5507 10.0003 66.6667 10.0003H33.3333V16.667Z" fill="#AE60D6"/>
</svg>
