<svg width="80" height="80" viewBox="0 0 80 80" fill="none" xmlns="http://www.w3.org/2000/svg">
<path d="M11.4277 12.571C11.4277 10.7524 12.1502 9.00824 13.4361 7.72228C14.7221 6.43631 16.4663 5.71387 18.2849 5.71387H41.6163C42.5173 5.71353 43.4095 5.89075 44.2419 6.23539C45.0743 6.58004 45.8307 7.08534 46.4677 7.72244L64.902 26.1567C63.4818 26.6102 62.1906 27.3968 61.1363 28.451L44.2849 11.6024V28.571C44.2849 28.9499 44.4354 29.3133 44.7033 29.5812C44.9712 29.8491 45.3346 29.9996 45.7134 29.9996H59.5877L55.302 34.2853H45.7134C44.1979 34.2853 42.7445 33.6833 41.6728 32.6116C40.6012 31.54 39.9992 30.0865 39.9992 28.571V9.99958H18.2849C17.6029 9.99958 16.9488 10.2705 16.4666 10.7527C15.9844 11.235 15.7134 11.889 15.7134 12.571V67.4282C15.7134 68.1101 15.9844 68.7642 16.4666 69.2464C16.9488 69.7287 17.6029 69.9996 18.2849 69.9996H61.7135C62.3954 69.9996 63.0495 69.7287 63.5317 69.2464C64.014 68.7642 64.2849 68.1101 64.2849 67.4282V51.8567L68.5706 47.571V67.4282C68.5706 69.2468 67.8481 70.9909 66.5622 72.2769C65.2762 73.5628 63.5321 74.2853 61.7135 74.2853H18.2849C16.4663 74.2853 14.7221 73.5628 13.4361 72.2769C12.1502 70.9909 11.4277 69.2468 11.4277 67.4282V12.571ZM40.562 53.0624L63.142 30.4853C63.743 29.8554 64.4639 29.352 65.2623 29.0047C66.0606 28.6574 66.9204 28.4732 67.7909 28.463C68.6615 28.4527 69.5253 28.6167 70.3316 28.9451C71.1379 29.2736 71.8704 29.7599 72.4861 30.3755C73.1017 30.9912 73.588 31.7237 73.9165 32.53C74.2449 33.3363 74.4089 34.2001 74.3986 35.0707C74.3884 35.9412 74.2042 36.801 73.8569 37.5993C73.5096 38.3977 73.0062 39.1186 72.3763 39.7196L49.7992 62.2967C48.8158 63.2809 47.5832 63.9792 46.2334 64.3167L41.0049 65.6224C40.6768 65.7071 40.3371 65.738 39.9992 65.7139H22.142C21.5737 65.7139 21.0287 65.4881 20.6268 65.0862C20.2249 64.6844 19.9992 64.1393 19.9992 63.571C19.9992 63.0027 20.2249 62.4576 20.6268 62.0558C21.0287 61.6539 21.5737 61.4282 22.142 61.4282H37.3449L38.5449 56.6281C38.882 55.2767 39.5792 54.0453 40.562 53.0624Z" fill="#AE60D6"/>
</svg>
