<svg
              width="50"
              height="50"
              viewBox="0 0 50 50"
              fill="none"
              xmlns="http://www.w3.org/2000/svg"
            >
              <path
                d="M25 3.90625C20.8281 3.90625 16.7498 5.14338 13.2809 7.46119C9.8121 9.779 7.10846 13.0734 5.51193 16.9278C3.91539 20.7822 3.49766 25.0234 4.31157 29.1152C5.12548 33.207 7.13446 36.9655 10.0845 39.9155C13.0345 42.8655 16.793 44.8745 20.8848 45.6884C24.9766 46.5023 29.2179 46.0846 33.0722 44.4881C36.9266 42.8915 40.221 40.1879 42.5388 36.7191C44.8566 33.2502 46.0938 29.1719 46.0938 25C46.0876 19.4075 43.8632 14.0458 39.9087 10.0913C35.9542 6.13682 30.5925 3.91245 25 3.90625ZM25 41.4062C21.7552 41.4062 18.5832 40.444 15.8852 38.6413C13.1872 36.8386 11.0844 34.2762 9.84261 31.2784C8.60086 28.2805 8.27596 24.9818 8.909 21.7993C9.54204 18.6168 11.1046 15.6935 13.399 13.399C15.6935 11.1046 18.6168 9.54203 21.7993 8.90899C24.9818 8.27595 28.2806 8.60085 31.2784 9.8426C34.2763 11.0844 36.8386 13.1872 38.6413 15.8852C40.444 18.5832 41.4063 21.7551 41.4063 25C41.4016 29.3498 39.6716 33.5201 36.5958 36.5958C33.5201 39.6716 29.3498 41.4016 25 41.4062ZM38.2813 25C38.2813 25.6216 38.0343 26.2177 37.5948 26.6573C37.1553 27.0968 36.5591 27.3438 35.9375 27.3438H25C24.3784 27.3438 23.7823 27.0968 23.3427 26.6573C22.9032 26.2177 22.6563 25.6216 22.6563 25V14.0625C22.6563 13.4409 22.9032 12.8448 23.3427 12.4052C23.7823 11.9657 24.3784 11.7188 25 11.7188C25.6216 11.7188 26.2178 11.9657 26.6573 12.4052C27.0968 12.8448 27.3438 13.4409 27.3438 14.0625V22.6562H35.9375C36.5591 22.6562 37.1553 22.9032 37.5948 23.3427C38.0343 23.7823 38.2813 24.3784 38.2813 25Z"
                fill="#9747FF"
              />
            </svg>