<svg width="80" height="80" viewBox="0 0 80 80" fill="none" xmlns="http://www.w3.org/2000/svg">
<path d="M21.8 16.6667C22 19.6333 22.5 22.5333 23.3 25.3L19.3 29.3C17.9333 25.3 17.0667 21.0667 16.7667 16.6667H21.8ZM54.6667 56.7333C57.5 57.5333 60.4 58.0333 63.3333 58.2333V63.2C58.9333 62.9 54.7 62.0333 50.6667 60.7L54.6667 56.7333ZM25 10H13.3333C11.5 10 10 11.5 10 13.3333C10 44.6333 35.3667 70 66.6667 70C68.5 70 70 68.5 70 66.6667V55.0333C70 53.2 68.5 51.7 66.6667 51.7C62.5333 51.7 58.5 51.0333 54.7667 49.8C54.4358 49.68 54.0852 49.6234 53.7333 49.6333C52.8667 49.6333 52.0333 49.9667 51.3667 50.6L44.0333 57.9333C34.5848 53.1013 26.8987 45.4152 22.0667 35.9667L29.4 28.6333C30.3333 27.7 30.6 26.4 30.2333 25.2333C28.9688 21.3935 28.3274 17.376 28.3333 13.3333C28.3333 11.5 26.8333 10 25 10Z" fill="#AE60D6"/>
</svg>
