<svg width="80" height="80" viewBox="0 0 80 80" fill="none" xmlns="http://www.w3.org/2000/svg">
<path d="M40 3.90625C38.1884 3.90625 36.4062 5.90625 36.4062 8.75C36.4062 11.5938 38.1884 13.5938 40 13.5938C41.8116 13.5938 43.5938 11.5938 43.5938 8.75C43.5938 5.90625 41.8116 3.90625 40 3.90625ZM23.7577 4.37109L21.2423 5.62891C23.6005 10.3453 29.2689 14.5055 34.0842 17.2605L36.3022 46.0938H38.5938V30H41.4062V46.0938H43.6978L45.9158 17.2605C50.7311 14.5055 56.3995 10.3453 58.7577 5.62891L56.2423 4.37109C53.1314 9.04297 49.2281 12.0505 45.0964 13.3977C43.9548 15.2 42.1484 16.4062 40 16.4062C37.8516 16.4062 36.0453 15.2 34.9036 13.3975C30.7719 12.0506 26.8686 9.04297 23.7577 4.37109ZM26.4062 48.9062V63.9062H3.90625V76.0938H76.0938V71.4062H53.5938V48.9062H26.4062Z" fill="#AE60D6"/>
</svg>
